<svg width="54" height="38" viewBox="0 0 54 38" fill="none" xmlns="http://www.w3.org/2000/svg">
<path d="M42.5 0.59375H11.5C10.7292 0.59375 9.99 0.899943 9.44497 1.44497C8.89994 1.99 8.59375 2.72921 8.59375 3.5V34.5C8.59375 35.2708 8.89994 36.01 9.44497 36.555C9.99 37.1001 10.7292 37.4062 11.5 37.4062H42.5C43.2708 37.4062 44.01 37.1001 44.555 36.555C45.1001 36.01 45.4062 35.2708 45.4062 34.5V3.5C45.4062 2.72921 45.1001 1.99 44.555 1.44497C44.01 0.899943 43.2708 0.59375 42.5 0.59375ZM43.4687 34.5C43.4687 34.7569 43.3667 35.0033 43.185 35.185C43.0033 35.3667 42.7569 35.4688 42.5 35.4688H11.5C11.2431 35.4688 10.9967 35.3667 10.815 35.185C10.6333 35.0033 10.5312 34.7569 10.5312 34.5V3.5C10.5312 3.24307 10.6333 2.99667 10.815 2.81499C10.9967 2.63331 11.2431 2.53125 11.5 2.53125H42.5C42.7569 2.53125 43.0033 2.63331 43.185 2.81499C43.3667 2.99667 43.4687 3.24307 43.4687 3.5V34.5ZM53.1562 1.5625V36.4375C53.1562 36.6944 53.0542 36.9408 52.8725 37.1225C52.6908 37.3042 52.4444 37.4062 52.1875 37.4062C51.9306 37.4062 51.6842 37.3042 51.5025 37.1225C51.3208 36.9408 51.2187 36.6944 51.2187 36.4375V1.5625C51.2187 1.30557 51.3208 1.05917 51.5025 0.87749C51.6842 0.695815 51.9306 0.59375 52.1875 0.59375C52.4444 0.59375 52.6908 0.695815 52.8725 0.87749C53.0542 1.05917 53.1562 1.30557 53.1562 1.5625ZM2.78125 1.5625V36.4375C2.78125 36.6944 2.67919 36.9408 2.49751 37.1225C2.31583 37.3042 2.06943 37.4062 1.8125 37.4062C1.55557 37.4062 1.30917 37.3042 1.12749 37.1225C0.945815 36.9408 0.84375 36.6944 0.84375 36.4375V1.5625C0.84375 1.30557 0.945815 1.05917 1.12749 0.87749C1.30917 0.695815 1.55557 0.59375 1.8125 0.59375C2.06943 0.59375 2.31583 0.695815 2.49751 0.87749C2.67919 1.05917 2.78125 1.30557 2.78125 1.5625Z" fill="#8C8CA2"/>
</svg>
