<svg width="50" height="50" viewBox="0 0 50 50" fill="none" xmlns="http://www.w3.org/2000/svg">
<path d="M25 0.78125C20.21 0.78125 15.5275 2.20165 11.5448 4.86285C7.56204 7.52404 4.45786 11.3065 2.6248 15.7319C0.791743 20.1573 0.312132 25.0269 1.24662 29.7248C2.1811 34.4228 4.48772 38.7382 7.87477 42.1252C11.2618 45.5123 15.5772 47.8189 20.2752 48.7534C24.9731 49.6879 29.8427 49.2083 34.2681 47.3752C38.6935 45.5421 42.476 42.438 45.1372 38.4552C47.7984 34.4725 49.2188 29.79 49.2188 25C49.2117 18.579 46.6578 12.4229 42.1175 7.88255C37.5771 3.34218 31.4211 0.788302 25 0.78125ZM47.2813 25C47.2813 27.4606 41.8902 30.1368 33.4499 31.2484C33.6243 29.2673 33.7188 27.1797 33.7188 25C33.7188 15.0316 31.7643 6.83594 28.8072 3.0457C33.9764 3.94895 38.6619 6.64496 42.0405 10.6601C45.4191 14.6752 47.2747 19.7525 47.2813 25ZM25 2.71875C28.2066 2.71875 31.7813 11.8686 31.7813 25C31.7813 27.2887 31.6699 29.4538 31.4737 31.4737C29.4538 31.6698 27.2887 31.7812 25 31.7812C11.8686 31.7812 2.71876 28.2066 2.71876 25C2.72517 19.0926 5.07471 13.429 9.25187 9.25186C13.429 5.0747 19.0926 2.72516 25 2.71875ZM3.04571 28.8072C6.83595 31.7643 15.0316 33.7188 25 33.7188C27.1797 33.7188 29.2674 33.6243 31.2484 33.4499C30.1368 41.8902 27.4606 47.2812 25 47.2812C19.7525 47.2747 14.6752 45.4191 10.6601 42.0405C6.64497 38.6619 3.94896 33.9764 3.04571 28.8072ZM28.8072 46.9543C30.8973 44.2757 32.486 39.3932 33.2392 33.2392C39.3932 32.486 44.2757 30.8973 46.9543 28.8072C46.1618 33.3306 43.9943 37.4998 40.7471 40.7471C37.4998 43.9943 33.3306 46.1618 28.8072 46.9543Z" fill="#DB4FD7"/>
</svg>
