<?xml version="1.0" standalone="no"?>
<!DOCTYPE svg PUBLIC "-//W3C//DTD SVG 20010904//EN"
 "http://www.w3.org/TR/2001/REC-SVG-20010904/DTD/svg10.dtd">
<svg version="1.0" xmlns="http://www.w3.org/2000/svg"
 width="832.000000pt" height="832.000000pt" viewBox="0 0 832.000000 832.000000"
 preserveAspectRatio="xMidYMid meet">
<metadata>
Created by potrace 1.14, written by Peter Selinger 2001-2017
</metadata>
<g transform="translate(0.000000,832.000000) scale(0.100000,-0.100000)"
fill="#000000" stroke="none">
<path d="M5750 6676 c-30 -7 -72 -20 -92 -29 -21 -9 -38 -14 -38 -12 0 8 -125
-68 -165 -100 -48 -40 -112 -103 -142 -142 -12 -15 -31 -39 -43 -53 -52 -59
-320 -487 -320 -510 0 -6 -4 -10 -10 -10 -5 0 -12 -11 -16 -25 -3 -14 -10 -25
-15 -25 -10 0 -24 -64 -22 -102 2 -27 22 -74 83 -183 18 -33 46 -85 63 -115
17 -30 41 -72 54 -92 12 -21 23 -40 23 -43 0 -2 18 -34 40 -70 22 -36 40 -67
40 -69 0 -1 22 -40 49 -85 l48 -82 31 48 c24 38 132 216 302 493 5 8 37 60 71
115 34 55 89 146 123 202 33 56 64 98 68 95 3 -4 14 -21 25 -39 10 -18 74
-126 142 -240 133 -223 308 -520 349 -593 14 -25 35 -61 47 -80 12 -19 25 -42
28 -50 4 -8 17 -31 28 -50 24 -40 246 -422 266 -460 8 -14 23 -38 33 -55 11
-16 23 -37 27 -45 3 -8 38 -69 76 -135 38 -66 82 -142 97 -170 15 -27 42 -75
60 -105 18 -30 36 -64 41 -75 5 -11 17 -33 27 -50 10 -16 73 -129 139 -250
194 -354 206 -389 206 -560 -1 -137 -48 -246 -153 -352 -231 -236 -511 -291
-790 -155 -63 31 -96 58 -205 167 -173 172 -240 253 -338 406 -56 88 -168 291
-168 306 0 5 -40 78 -88 163 -49 85 -100 175 -113 200 -14 25 -44 77 -67 117
-49 87 -46 81 -208 368 -72 127 -141 248 -153 270 -13 22 -37 65 -53 95 -17
30 -39 69 -48 85 -10 17 -27 46 -37 65 -10 19 -48 87 -84 150 -35 63 -77 136
-91 162 -15 26 -47 84 -72 128 -25 44 -57 102 -72 128 -43 77 -159 284 -181
322 -12 19 -31 55 -44 80 -12 25 -30 56 -39 70 -9 14 -28 46 -43 73 -44 80
-72 130 -96 172 -21 37 -33 58 -95 170 -12 22 -33 58 -45 80 -13 22 -28 49
-34 60 -6 11 -31 47 -55 80 -167 228 -374 337 -641 336 -228 0 -394 -77 -558
-258 -37 -41 -71 -83 -76 -93 -5 -11 -13 -20 -18 -20 -4 0 -8 -6 -8 -14 0 -8
-4 -16 -8 -18 -5 -1 -39 -55 -77 -118 -37 -63 -75 -126 -84 -140 -8 -14 -23
-38 -32 -55 -9 -16 -25 -44 -35 -62 -11 -17 -46 -77 -79 -133 -33 -57 -73
-123 -88 -149 -15 -25 -33 -57 -40 -71 -6 -14 -14 -27 -17 -30 -5 -4 -113
-185 -155 -258 -9 -15 -47 -79 -80 -134 -13 -22 -86 -144 -105 -177 -39 -67
-125 -210 -145 -241 -12 -19 -66 -109 -120 -200 -54 -91 -113 -188 -132 -217
-18 -28 -33 -54 -33 -56 0 -3 -34 -60 -75 -127 -41 -67 -75 -126 -75 -131 0
-5 -4 -9 -10 -9 -5 0 -10 -4 -10 -9 0 -6 -38 -72 -85 -148 -47 -76 -88 -144
-92 -152 -3 -7 -95 -162 -205 -344 -109 -182 -198 -334 -198 -339 0 -4 -4 -8
-10 -8 -5 0 -10 -4 -10 -8 0 -4 -39 -73 -86 -152 -48 -80 -95 -158 -104 -175
-86 -148 -292 -493 -300 -502 -5 -7 -10 -14 -10 -17 0 -6 -135 -239 -159 -276
-28 -40 -84 -141 -107 -191 l-22 -47 438 0 438 0 30 42 c16 22 66 106 112 186
45 80 100 173 121 207 22 34 39 65 39 68 0 5 40 73 78 131 6 10 15 26 19 34 4
8 18 33 32 55 14 22 31 50 37 62 40 73 370 619 376 621 5 2 8 12 8 22 0 10 3
20 8 22 9 4 132 206 132 219 0 5 5 9 10 9 6 0 10 7 10 15 0 8 5 15 10 15 6 0
10 4 10 9 0 9 410 695 428 716 4 6 23 36 42 69 19 32 42 70 51 85 50 82 445
740 458 763 21 35 156 264 201 339 19 32 82 138 139 235 57 97 132 219 167
270 l63 94 20 -29 c12 -16 21 -31 21 -34 0 -3 23 -40 50 -81 28 -42 50 -80 50
-86 0 -5 5 -10 10 -10 6 0 10 -4 10 -9 0 -13 292 -515 302 -519 4 -2 8 -12 8
-23 0 -10 5 -19 10 -19 6 0 10 -4 10 -9 0 -7 114 -207 454 -792 11 -20 58
-101 104 -180 46 -79 87 -151 92 -159 20 -32 240 -413 240 -415 0 -2 18 -33
40 -69 22 -36 40 -70 40 -76 0 -5 5 -10 10 -10 6 0 10 -4 10 -9 0 -7 18 -40
125 -225 17 -28 49 -85 73 -126 24 -41 51 -89 61 -106 49 -81 247 -425 274
-474 17 -30 34 -56 39 -58 4 -2 8 -8 8 -13 0 -13 81 -133 92 -137 4 -2 8 -7 8
-12 0 -17 169 -196 245 -260 210 -176 455 -292 730 -346 34 -7 168 -17 215
-17 201 1 423 53 624 147 136 64 311 180 299 199 -3 6 -2 8 3 4 11 -7 121 96
190 178 59 69 147 195 137 195 -3 0 1 8 9 18 52 61 136 308 154 457 10 77 10
296 0 355 -4 25 -9 59 -12 75 -3 17 -14 64 -25 105 -11 41 -22 82 -24 90 -2 8
-4 16 -5 18 -2 1 -3 5 -5 10 -8 29 -68 172 -87 206 -38 70 -149 270 -231 416
-14 26 -73 128 -131 229 -58 101 -106 187 -106 192 0 5 -4 9 -10 9 -5 0 -10 4
-10 9 0 5 -23 49 -51 98 -28 48 -59 102 -69 118 -9 17 -38 65 -64 108 -25 43
-46 83 -46 88 0 5 -4 9 -10 9 -5 0 -10 4 -10 10 0 8 -61 114 -109 190 -8 14
-16 28 -16 32 0 4 -6 13 -12 20 -7 6 -13 18 -13 25 0 7 -4 13 -10 13 -5 0 -10
5 -10 10 0 6 -20 43 -43 83 -107 177 -217 367 -217 373 0 4 -11 21 -23 38 -13
17 -26 36 -28 41 -3 8 -70 126 -99 175 -109 185 -224 365 -241 380 -3 3 -10
12 -15 21 -16 28 -67 91 -109 133 -95 97 -205 166 -325 206 -79 26 -240 34
-320 16z"/>
<path d="M4000 4250 c0 -6 -22 -46 -50 -90 -27 -44 -50 -84 -50 -90 0 -5 -4
-10 -10 -10 -5 0 -10 -4 -10 -9 0 -8 -272 -455 -335 -551 -29 -44 -144 -229
-159 -255 -6 -11 -13 -22 -16 -25 -3 -3 -10 -14 -17 -25 -53 -90 -118 -191
-125 -193 -4 -2 -8 -8 -8 -13 0 -9 -66 -118 -111 -181 -10 -15 -19 -29 -19
-32 0 -9 -93 -151 -102 -154 -4 -2 -8 -7 -8 -12 0 -8 -159 -270 -170 -280 -3
-3 -11 -16 -19 -30 -8 -14 -72 -118 -143 -233 -70 -114 -128 -211 -128 -215 0
-4 -11 -20 -25 -36 -14 -16 -25 -33 -25 -38 0 -5 -13 -28 -28 -51 -16 -23 -41
-63 -56 -90 l-27 -47 446 0 c415 0 446 1 452 18 4 9 31 54 60 100 29 45 53 87
53 92 0 6 4 10 8 10 5 0 14 10 20 23 19 35 44 76 107 172 110 169 201 310 310
480 60 94 113 172 117 173 4 2 8 7 8 11 0 5 71 120 158 258 191 303 171 271
228 368 26 44 52 87 59 95 21 28 37 90 34 133 -2 31 -25 81 -84 187 -45 80
-85 152 -89 160 -4 8 -18 33 -31 55 -14 22 -32 54 -41 70 -8 17 -21 39 -27 50
-57 95 -87 147 -87 151 0 3 -10 18 -22 34 -22 30 -38 38 -38 20z"/>
</g>
</svg>
