<svg width="99" height="99" viewBox="0 0 99 99" fill="none" xmlns="http://www.w3.org/2000/svg">
<g clip-path="url(#clip0_1_1186)">
<mask id="path-1-inside-1_1_1186" fill="white">
<path d="M44.9418 19.6149C41.2002 19.6149 37.7088 20.6594 34.7322 22.4787C34.4245 20.833 33.8638 19.245 33.0698 17.7711C36.803 15.7051 41.0107 14.6492 45.277 14.7075C49.5433 14.7658 53.7205 15.9365 57.3958 18.1037C61.0711 20.271 64.1173 23.3598 66.2332 27.0649C68.349 30.77 69.4614 34.9631 69.4604 39.2298H81.7246C83.6746 39.2311 85.5443 40.0066 86.9227 41.3859C88.301 42.7652 89.0753 44.6354 89.0753 46.5854V76.0078C89.0753 77.9586 88.3004 79.8295 86.9209 81.209C85.5415 82.5884 83.6706 83.3634 81.7197 83.3634H52.2974C50.3465 83.3634 48.4756 82.5884 47.0962 81.209C45.7167 79.8295 44.9418 77.9586 44.9418 76.0078V63.7484C41.5306 63.7528 38.1564 63.0428 35.0362 61.6644C35.1 59.9971 35.1343 58.2465 35.1343 56.3928V56.2212C38.0177 57.8885 41.3669 58.8447 44.9418 58.8447V46.5854C44.9418 44.6346 45.7167 42.7636 47.0962 41.3842C48.4756 40.0048 50.3465 39.2298 52.2974 39.2298H64.5567C64.5567 34.0276 62.4901 29.0385 58.8116 25.36C55.1331 21.6814 50.144 19.6149 44.9418 19.6149ZM68.97 44.1335C68.0055 48.8439 65.6789 53.1673 62.2791 56.5671C58.8793 59.967 54.5559 62.2935 49.8455 63.2581V76.0078C49.8455 76.658 50.1038 77.2817 50.5636 77.7415C51.0234 78.2013 51.6471 78.4596 52.2974 78.4596H81.7197C82.37 78.4596 82.9937 78.2013 83.4535 77.7415C83.9133 77.2817 84.1716 76.658 84.1716 76.0078V46.5854C84.1716 45.9351 83.9133 45.3115 83.4535 44.8517C82.9937 44.3918 82.37 44.1335 81.7197 44.1335H68.97ZM63.9388 44.1335H52.2974C51.6471 44.1335 51.0234 44.3918 50.5636 44.8517C50.1038 45.3115 49.8455 45.9351 49.8455 46.5854V58.2268C53.238 57.3479 56.3336 55.5777 58.8117 53.0997C61.2897 50.6217 63.0599 47.526 63.9388 44.1335ZM23.2722 10.4204C23.6792 10.7764 23.9571 11.257 24.0627 11.7874C24.1682 12.3177 24.0955 12.8681 23.8557 13.3528C23.8142 13.4963 23.7928 13.6448 23.792 13.7942C23.792 14.1031 23.8704 14.6915 24.6109 15.4271C24.9689 15.7851 25.2435 16.0401 25.5426 16.3196C25.7878 16.5451 26.0477 16.7805 26.3762 17.1042C27.0137 17.7122 27.6855 18.4282 28.2887 19.3256C29.5392 21.2037 30.2306 23.5526 30.2306 26.9705C30.2306 31.1534 28.681 34.7184 26.2635 36.9054L26.5773 37.2683C27.9503 38.9552 28.7497 41.1423 29.2498 43.2999C30.2306 47.5661 30.2306 52.6954 30.2306 56.2703V56.3928C30.2306 70.0595 28.3721 77.8123 26.3272 82.2453C25.2974 84.4765 24.2039 85.8986 23.2575 86.7911C22.8727 87.1602 22.4484 87.4858 21.9923 87.762C21.7835 87.8877 21.5655 87.9976 21.3401 88.0906C21.3401 88.0906 20.786 88.2671 20.4231 88.2671C20.0602 88.2671 19.5061 88.0906 19.5061 88.0906C19.2783 88.003 19.0599 87.8929 18.8539 87.762C18.3978 87.4858 17.9735 87.1602 17.5888 86.7911C16.6423 85.8937 15.5488 84.4765 14.519 82.2453C12.4742 77.8123 10.6157 70.0595 10.6157 56.3928V56.2703C10.6157 52.6905 10.6157 47.5661 11.5964 43.2999C12.0966 41.1423 12.8959 38.9552 14.2689 37.2683C14.367 37.1457 14.4749 37.0231 14.5828 36.9054C12.1652 34.7184 10.6157 31.1534 10.6157 26.9705C10.6157 25.3719 11.0423 23.4643 11.6307 21.7039C12.2192 19.9385 13.043 18.1143 13.9943 16.6432C15.1271 14.7308 16.7208 13.1272 17.9565 12.0484C18.634 11.4526 19.3411 10.8912 20.075 10.3664L20.2221 10.2684L20.2662 10.234L20.2809 10.2242L20.2907 10.2193C20.7404 9.9196 21.2765 9.77682 21.8156 9.81318C22.3548 9.84953 22.8668 10.063 23.2722 10.4204ZM20.4231 34.3261C22.3209 34.3212 25.3268 32.2175 25.3268 26.9705C25.3268 24.2587 24.7923 22.9298 24.2039 22.0471C23.8461 21.5316 23.4334 21.0564 22.9731 20.63L22.365 20.0611C21.9678 19.6884 21.5019 19.2569 21.1391 18.8989C20.6027 18.3682 20.1423 17.7659 19.7709 17.1091C19.1467 17.7654 18.5974 18.489 18.1331 19.2667C17.4466 20.321 16.7796 21.7676 16.2844 23.2584C15.7744 24.7785 15.5194 26.1221 15.5194 26.9705C15.5194 32.2273 18.5352 34.3261 20.4231 34.3261ZM18.0693 40.3675C17.373 41.2158 16.7944 42.5692 16.3726 44.4032C15.5292 48.0712 15.5194 52.6807 15.5194 56.3928C15.5194 69.6967 17.3387 76.6551 18.9716 80.1907C19.511 81.3528 20.0161 82.1276 20.4231 82.6425C21.0025 81.8857 21.4898 81.0626 21.8746 80.1907C23.5076 76.6551 25.3268 69.6967 25.3268 56.3928C25.3268 52.6807 25.317 48.0712 24.4687 44.4032C24.047 42.5692 23.4683 41.2158 22.7769 40.3675C22.5064 40.001 22.1508 39.7059 21.7407 39.5076C21.3306 39.3094 20.8783 39.2141 20.4231 39.2298H20.4133C19.9597 39.2152 19.5093 39.3112 19.1009 39.5094C18.6926 39.7076 18.3386 40.0021 18.0693 40.3675Z"/>
</mask>
<path d="M44.9418 19.6149C41.2002 19.6149 37.7088 20.6594 34.7322 22.4787C34.4245 20.833 33.8638 19.245 33.0698 17.7711C36.803 15.7051 41.0107 14.6492 45.277 14.7075C49.5433 14.7658 53.7205 15.9365 57.3958 18.1037C61.0711 20.271 64.1173 23.3598 66.2332 27.0649C68.349 30.77 69.4614 34.9631 69.4604 39.2298H81.7246C83.6746 39.2311 85.5443 40.0066 86.9227 41.3859C88.301 42.7652 89.0753 44.6354 89.0753 46.5854V76.0078C89.0753 77.9586 88.3004 79.8295 86.9209 81.209C85.5415 82.5884 83.6706 83.3634 81.7197 83.3634H52.2974C50.3465 83.3634 48.4756 82.5884 47.0962 81.209C45.7167 79.8295 44.9418 77.9586 44.9418 76.0078V63.7484C41.5306 63.7528 38.1564 63.0428 35.0362 61.6644C35.1 59.9971 35.1343 58.2465 35.1343 56.3928V56.2212C38.0177 57.8885 41.3669 58.8447 44.9418 58.8447V46.5854C44.9418 44.6346 45.7167 42.7636 47.0962 41.3842C48.4756 40.0048 50.3465 39.2298 52.2974 39.2298H64.5567C64.5567 34.0276 62.4901 29.0385 58.8116 25.36C55.1331 21.6814 50.144 19.6149 44.9418 19.6149ZM68.97 44.1335C68.0055 48.8439 65.6789 53.1673 62.2791 56.5671C58.8793 59.967 54.5559 62.2935 49.8455 63.2581V76.0078C49.8455 76.658 50.1038 77.2817 50.5636 77.7415C51.0234 78.2013 51.6471 78.4596 52.2974 78.4596H81.7197C82.37 78.4596 82.9937 78.2013 83.4535 77.7415C83.9133 77.2817 84.1716 76.658 84.1716 76.0078V46.5854C84.1716 45.9351 83.9133 45.3115 83.4535 44.8517C82.9937 44.3918 82.37 44.1335 81.7197 44.1335H68.97ZM63.9388 44.1335H52.2974C51.6471 44.1335 51.0234 44.3918 50.5636 44.8517C50.1038 45.3115 49.8455 45.9351 49.8455 46.5854V58.2268C53.238 57.3479 56.3336 55.5777 58.8117 53.0997C61.2897 50.6217 63.0599 47.526 63.9388 44.1335ZM23.2722 10.4204C23.6792 10.7764 23.9571 11.257 24.0627 11.7874C24.1682 12.3177 24.0955 12.8681 23.8557 13.3528C23.8142 13.4963 23.7928 13.6448 23.792 13.7942C23.792 14.1031 23.8704 14.6915 24.6109 15.4271C24.9689 15.7851 25.2435 16.0401 25.5426 16.3196C25.7878 16.5451 26.0477 16.7805 26.3762 17.1042C27.0137 17.7122 27.6855 18.4282 28.2887 19.3256C29.5392 21.2037 30.2306 23.5526 30.2306 26.9705C30.2306 31.1534 28.681 34.7184 26.2635 36.9054L26.5773 37.2683C27.9503 38.9552 28.7497 41.1423 29.2498 43.2999C30.2306 47.5661 30.2306 52.6954 30.2306 56.2703V56.3928C30.2306 70.0595 28.3721 77.8123 26.3272 82.2453C25.2974 84.4765 24.2039 85.8986 23.2575 86.7911C22.8727 87.1602 22.4484 87.4858 21.9923 87.762C21.7835 87.8877 21.5655 87.9976 21.3401 88.0906C21.3401 88.0906 20.786 88.2671 20.4231 88.2671C20.0602 88.2671 19.5061 88.0906 19.5061 88.0906C19.2783 88.003 19.0599 87.8929 18.8539 87.762C18.3978 87.4858 17.9735 87.1602 17.5888 86.7911C16.6423 85.8937 15.5488 84.4765 14.519 82.2453C12.4742 77.8123 10.6157 70.0595 10.6157 56.3928V56.2703C10.6157 52.6905 10.6157 47.5661 11.5964 43.2999C12.0966 41.1423 12.8959 38.9552 14.2689 37.2683C14.367 37.1457 14.4749 37.0231 14.5828 36.9054C12.1652 34.7184 10.6157 31.1534 10.6157 26.9705C10.6157 25.3719 11.0423 23.4643 11.6307 21.7039C12.2192 19.9385 13.043 18.1143 13.9943 16.6432C15.1271 14.7308 16.7208 13.1272 17.9565 12.0484C18.634 11.4526 19.3411 10.8912 20.075 10.3664L20.2221 10.2684L20.2662 10.234L20.2809 10.2242L20.2907 10.2193C20.7404 9.9196 21.2765 9.77682 21.8156 9.81318C22.3548 9.84953 22.8668 10.063 23.2722 10.4204ZM20.4231 34.3261C22.3209 34.3212 25.3268 32.2175 25.3268 26.9705C25.3268 24.2587 24.7923 22.9298 24.2039 22.0471C23.8461 21.5316 23.4334 21.0564 22.9731 20.63L22.365 20.0611C21.9678 19.6884 21.5019 19.2569 21.1391 18.8989C20.6027 18.3682 20.1423 17.7659 19.7709 17.1091C19.1467 17.7654 18.5974 18.489 18.1331 19.2667C17.4466 20.321 16.7796 21.7676 16.2844 23.2584C15.7744 24.7785 15.5194 26.1221 15.5194 26.9705C15.5194 32.2273 18.5352 34.3261 20.4231 34.3261ZM18.0693 40.3675C17.373 41.2158 16.7944 42.5692 16.3726 44.4032C15.5292 48.0712 15.5194 52.6807 15.5194 56.3928C15.5194 69.6967 17.3387 76.6551 18.9716 80.1907C19.511 81.3528 20.0161 82.1276 20.4231 82.6425C21.0025 81.8857 21.4898 81.0626 21.8746 80.1907C23.5076 76.6551 25.3268 69.6967 25.3268 56.3928C25.3268 52.6807 25.317 48.0712 24.4687 44.4032C24.047 42.5692 23.4683 41.2158 22.7769 40.3675C22.5064 40.001 22.1508 39.7059 21.7407 39.5076C21.3306 39.3094 20.8783 39.2141 20.4231 39.2298H20.4133C19.9597 39.2152 19.5093 39.3112 19.1009 39.5094C18.6926 39.7076 18.3386 40.0021 18.0693 40.3675Z" fill="#DB4FD7" stroke="#DB4FD7" stroke-width="2" mask="url(#path-1-inside-1_1_1186)"/>
</g>
<defs>
<clipPath id="clip0_1_1186">
<rect width="98.0746" height="98.0746" fill="white" transform="translate(0.808167)"/>
</clipPath>
</defs>
</svg>
