<svg width="60" height="60" viewBox="0 0 60 60" fill="none" xmlns="http://www.w3.org/2000/svg">
<g clip-path="url(#clip0_294_121)">
<path d="M53.1194 32.4941L53.119 32.4945L30.619 54.9945L30.6186 54.9948C30.5373 55.0762 30.4408 55.1407 30.3346 55.1848C30.2284 55.2288 30.1145 55.2515 29.9995 55.2515C29.8845 55.2515 29.7707 55.2288 29.6644 55.1848C29.5582 55.1407 29.4617 55.0762 29.3805 54.9948L29.3801 54.9945L6.88007 32.4945L6.87967 32.4941C6.75716 32.3717 6.67372 32.2157 6.6399 32.0459C6.60608 31.8761 6.62341 31.7 6.68969 31.5401C6.75598 31.3801 6.86823 31.2434 7.01225 31.1472C7.15627 31.0511 7.32558 30.9999 7.49874 31H7.49952H16.8745H17.8745V30V11.25C17.8745 10.5207 18.1643 9.82118 18.68 9.30546C19.1957 8.78973 19.8952 8.5 20.6245 8.5H39.3745C40.1039 8.5 40.8033 8.78973 41.3191 9.30546C41.8348 9.82118 42.1245 10.5207 42.1245 11.25V30V31H43.1245H52.4995H52.5003C52.6735 30.9999 52.8428 31.0511 52.9868 31.1472C53.1308 31.2434 53.2431 31.3801 53.3094 31.5401C53.3756 31.7 53.393 31.8761 53.3591 32.0459L54.3399 32.2412L53.3591 32.0459C53.3253 32.2157 53.2419 32.3717 53.1194 32.4941Z" stroke="#D0BCFE" stroke-width="2"/>
</g>
<defs>
<clipPath id="clip0_294_121">
<rect width="60" height="60" fill="white"/>
</clipPath>
</defs>
</svg>
