<svg width="50" height="60" viewBox="0 0 50 60" fill="none" xmlns="http://www.w3.org/2000/svg">
<path d="M49.6144 36.1396L25.9309 59.6175C25.8087 59.7387 25.6636 59.8349 25.5039 59.9006C25.3441 59.9662 25.1729 60 25 60C24.8271 60 24.6559 59.9662 24.4961 59.9006C24.3364 59.8349 24.1913 59.7387 24.0691 59.6175L0.385588 36.1396C0.1387 35.8949 -6.88263e-09 35.5629 0 35.2168C6.88264e-09 34.8707 0.138701 34.5387 0.385589 34.294C0.632478 34.0492 0.96733 33.9117 1.31648 33.9117C1.66564 33.9117 2.00049 34.0492 2.24738 34.294L23.6842 55.5447V1.30433C23.6842 0.958397 23.8229 0.626637 24.0696 0.382028C24.3164 0.13742 24.651 0 25 0C25.349 0 25.6836 0.13742 25.9304 0.382028C26.1771 0.626637 26.3158 0.958397 26.3158 1.30433V55.5447L47.7526 34.294C47.9995 34.0492 48.3344 33.9117 48.6835 33.9117C49.0327 33.9117 49.3675 34.0492 49.6144 34.294C49.8613 34.5387 50 34.8707 50 35.2168C50 35.5629 49.8613 35.8949 49.6144 36.1396Z" fill="#D0BCFE"/>
</svg>
