<svg width="99" height="99" viewBox="0 0 99 99" fill="none" xmlns="http://www.w3.org/2000/svg">
<path d="M85.3572 26.6857L51.6456 8.22863C50.9691 7.85845 50.2103 7.66443 49.4391 7.66443C48.6679 7.66443 47.909 7.85845 47.2325 8.22863L13.5209 26.6857C12.7977 27.0814 12.1942 27.6643 11.7737 28.3733C11.3531 29.0823 11.131 29.8914 11.1305 30.7158V67.3541C11.131 68.1785 11.3531 68.9876 11.7737 69.6966C12.1942 70.4056 12.7977 70.9885 13.5209 71.3842L47.2325 89.8413C47.9085 90.2132 48.6675 90.4082 49.4391 90.4082C50.2106 90.4082 50.9696 90.2132 51.6456 89.8413L85.3572 71.3842C86.0804 70.9885 86.6839 70.4056 87.1044 69.6966C87.525 68.9876 87.7472 68.1785 87.7477 67.3541V30.7158C87.7472 29.8914 87.525 29.0823 87.1044 28.3733C86.6839 27.6643 86.0804 27.0814 85.3572 26.6857ZM48.7035 10.9179C48.9284 10.7924 49.1816 10.7266 49.4391 10.7266C49.6965 10.7266 49.9497 10.7924 50.1746 10.9179L83.4073 29.1145L49.4391 47.7018L15.4708 29.1145L48.7035 10.9179ZM14.992 68.6988C14.7507 68.5667 14.5494 68.3723 14.4092 68.1357C14.269 67.8991 14.1951 67.6291 14.1952 67.3541V31.9072L47.9067 50.3566V86.7153L14.992 68.6988ZM83.8861 68.6988L50.9714 86.7038V50.3566L84.683 31.9072V67.3541C84.6823 67.6285 84.6081 67.8976 84.4679 68.1335C84.3277 68.3693 84.1268 68.5632 83.8861 68.6949V68.6988Z" fill="#DB4FD7"/>
</svg>
