<svg width="21" height="20" viewBox="0 0 21 20" fill="none" xmlns="http://www.w3.org/2000/svg">
<path d="M18.4632 6.97643L10.9632 1.97643C10.8605 1.90791 10.7398 1.87134 10.6163 1.87134C10.4929 1.87134 10.3722 1.90791 10.2695 1.97643L2.76946 6.97643C2.68384 7.03355 2.61366 7.11094 2.56514 7.2017C2.51662 7.29247 2.49127 7.39382 2.49133 7.49674V15.6217C2.49133 15.9533 2.62303 16.2712 2.85745 16.5056C3.09187 16.74 3.40981 16.8717 3.74133 16.8717H17.4913C17.8229 16.8717 18.1408 16.74 18.3752 16.5056C18.6096 16.2712 18.7413 15.9533 18.7413 15.6217V7.49674C18.7414 7.39382 18.716 7.29247 18.6675 7.2017C18.619 7.11094 18.5488 7.03355 18.4632 6.97643ZM8.17258 11.8717L3.74133 14.9967V8.71002L8.17258 11.8717ZM9.45149 12.4967H11.7812L16.2054 15.6217H5.02727L9.45149 12.4967ZM13.0601 11.8717L17.4913 8.71002V14.9967L13.0601 11.8717ZM10.6163 3.24753L17.0156 7.51393L11.7812 11.2467H9.45305L4.21868 7.51393L10.6163 3.24753Z" fill="#DB4FD7"/>
</svg>
