<svg width="51" height="52" viewBox="0 0 51 52" fill="none" xmlns="http://www.w3.org/2000/svg">
<path d="M25.8082 0.809326C20.8265 0.809326 15.9568 2.28655 11.8147 5.05419C7.67267 7.82182 4.44433 11.7556 2.53795 16.358C0.631565 20.9604 0.132768 26.0248 1.10463 30.9107C2.0765 35.7966 4.47538 40.2845 7.99791 43.8071C11.5204 47.3296 16.0084 49.7285 20.8943 50.7004C25.7802 51.6722 30.8446 51.1734 35.447 49.267C40.0494 47.3607 43.9832 44.1323 46.7508 39.9902C49.5184 35.8482 50.9957 30.9784 50.9957 25.9968C50.9886 19.3188 48.3327 12.9164 43.6106 8.19436C38.8886 3.47232 32.4861 0.816378 25.8082 0.809326ZM27.7457 47.2197V31.8093H33.5582C34.072 31.8093 34.5648 31.6052 34.9282 31.2418C35.2915 30.8785 35.4957 30.3857 35.4957 29.8718C35.4957 29.358 35.2915 28.8652 34.9282 28.5018C34.5648 28.1385 34.072 27.9343 33.5582 27.9343H27.7457V22.1218C27.7457 21.0941 28.1539 20.1085 28.8806 19.3818C29.6073 18.6551 30.5929 18.2468 31.6207 18.2468H35.4957C36.0095 18.2468 36.5023 18.0427 36.8657 17.6793C37.229 17.316 37.4332 16.8232 37.4332 16.3093C37.4332 15.7955 37.229 15.3027 36.8657 14.9393C36.5023 14.576 36.0095 14.3718 35.4957 14.3718H31.6207C29.5652 14.3718 27.594 15.1883 26.1406 16.6417C24.6872 18.0952 23.8707 20.0664 23.8707 22.1218V27.9343H18.0582C17.5443 27.9343 17.0515 28.1385 16.6881 28.5018C16.3248 28.8652 16.1207 29.358 16.1207 29.8718C16.1207 30.3857 16.3248 30.8785 16.6881 31.2418C17.0515 31.6052 17.5443 31.8093 18.0582 31.8093H23.8707V47.2197C18.4088 46.7211 13.3495 44.1361 9.74493 40.0024C6.14039 35.8687 4.26818 30.5046 4.51774 25.0257C4.76729 19.5469 7.1194 14.3751 11.0848 10.5862C15.0502 6.79731 20.3236 4.68297 25.8082 4.68297C31.2927 4.68297 36.5661 6.79731 40.5315 10.5862C44.4969 14.3751 46.849 19.5469 47.0986 25.0257C47.3481 30.5046 45.4759 35.8687 41.8714 40.0024C38.2669 44.1361 33.2075 46.7211 27.7457 47.2197Z" fill="#8C8CA2"/>
</svg>
