<svg width="77" height="78" viewBox="0 0 77 78" fill="none" xmlns="http://www.w3.org/2000/svg">
<path d="M38.6513 0.72644C31.0746 0.72644 23.668 2.9732 17.3682 7.1826C11.0684 11.392 6.15828 17.375 3.2588 24.375C0.35931 31.375 -0.399327 39.0775 1.07882 46.5087C2.55696 53.9398 6.2055 60.7657 11.5631 66.1233C16.9206 71.4809 23.7465 75.1294 31.1777 76.6075C38.6088 78.0857 46.3114 77.327 53.3114 74.4276C60.3114 71.5281 66.2943 66.618 70.5038 60.3181C74.7132 54.0183 76.9599 46.6118 76.9599 39.035C76.9488 28.8784 72.9091 19.1409 65.7273 11.9591C58.5454 4.77725 48.808 0.737594 38.6513 0.72644ZM73.8952 39.035C73.8952 42.9272 65.3677 47.1603 52.0172 48.9187C52.293 45.785 52.4424 42.4828 52.4424 39.035C52.4424 23.2672 49.3509 10.3036 44.6734 4.30829C52.8499 5.73702 60.2613 10.0015 65.6055 16.3525C70.9498 22.7035 73.8849 30.7347 73.8952 39.035ZM38.6513 3.79113C43.7234 3.79113 49.3777 18.2641 49.3777 39.035C49.3777 42.6552 49.2015 46.08 48.8912 49.2749C45.6963 49.5852 42.2715 49.7614 38.6513 49.7614C17.8804 49.7614 3.40742 44.1071 3.40742 39.035C3.41756 29.6909 7.134 20.7323 13.7413 14.125C20.3486 7.51771 29.3072 3.80127 38.6513 3.79113ZM3.92458 45.0571C9.91988 49.7346 22.8835 52.8261 38.6513 52.8261C42.0991 52.8261 45.4013 52.6767 48.5349 52.4009C46.7766 65.7514 42.5435 74.2789 38.6513 74.2789C30.351 74.2686 22.3198 71.3335 15.9688 65.9893C9.6178 60.645 5.35331 53.2336 3.92458 45.0571ZM44.6734 73.7618C47.9795 69.5248 50.4925 61.8018 51.6839 52.0676C61.4181 50.8762 69.1411 48.3632 73.3781 45.0571C72.1245 52.2122 68.6961 58.8069 63.5596 63.9434C58.4232 69.0798 51.8285 72.5082 44.6734 73.7618Z" fill="#DB4FD7"/>
</svg>
