<svg width="51" height="52" viewBox="0 0 51 52" fill="none" xmlns="http://www.w3.org/2000/svg">
<path d="M25.8082 14.3718C23.509 14.3718 21.2614 15.0536 19.3497 16.331C17.4379 17.6084 15.9479 19.4239 15.0681 21.5481C14.1882 23.6723 13.958 26.0097 14.4065 28.2648C14.8551 30.5198 15.9623 32.5912 17.5881 34.2169C19.2138 35.8427 21.2852 36.9499 23.5402 37.3985C25.7953 37.847 28.1327 37.6168 30.2569 36.7369C32.3811 35.8571 34.1966 34.3671 35.474 32.4553C36.7514 30.5436 37.4332 28.296 37.4332 25.9968C37.43 22.9147 36.2042 19.9597 34.0247 17.7803C31.8453 15.6008 28.8903 14.375 25.8082 14.3718ZM25.8082 33.7468C24.2754 33.7468 22.777 33.2923 21.5025 32.4407C20.228 31.5891 19.2347 30.3787 18.6481 28.9626C18.0615 27.5465 17.908 25.9882 18.2071 24.4849C18.5061 22.9815 19.2442 21.6006 20.3281 20.5167C21.4119 19.4329 22.7929 18.6948 24.2962 18.3957C25.7996 18.0967 27.3578 18.2502 28.774 18.8368C30.1901 19.4233 31.4005 20.4167 32.2521 21.6912C33.1036 22.9656 33.5582 24.464 33.5582 25.9968C33.5582 28.0523 32.7416 30.0235 31.2882 31.4769C29.8348 32.9303 27.8636 33.7468 25.8082 33.7468ZM37.4332 0.809326H14.1832C10.5873 0.813173 7.13991 2.24331 4.59728 4.78594C2.05465 7.32857 0.624513 10.776 0.620667 14.3718V37.6218C0.624513 41.2176 2.05465 44.6651 4.59728 47.2077C7.13991 49.7503 10.5873 51.1805 14.1832 51.1843H37.4332C41.029 51.1805 44.4764 49.7503 47.0191 47.2077C49.5617 44.6651 50.9918 41.2176 50.9957 37.6218V14.3718C50.9918 10.776 49.5617 7.32857 47.0191 4.78594C44.4764 2.24331 41.029 0.813173 37.4332 0.809326ZM47.1207 37.6218C47.1207 40.1911 46.1 42.6552 44.2833 44.4719C42.4665 46.2887 40.0025 47.3093 37.4332 47.3093H14.1832C11.6139 47.3093 9.14983 46.2887 7.33307 44.4719C5.51631 42.6552 4.49567 40.1911 4.49567 37.6218V14.3718C4.49567 11.8025 5.51631 9.33849 7.33307 7.52173C9.14983 5.70497 11.6139 4.68433 14.1832 4.68433H37.4332C40.0025 4.68433 42.4665 5.70497 44.2833 7.52173C46.1 9.33849 47.1207 11.8025 47.1207 14.3718V37.6218ZM41.3082 13.4031C41.3082 13.9779 41.1377 14.5398 40.8184 15.0177C40.499 15.4956 40.0451 15.8681 39.5141 16.0881C38.983 16.3081 38.3987 16.3656 37.8349 16.2535C37.2712 16.1413 36.7533 15.8646 36.3469 15.4581C35.9404 15.0517 35.6636 14.5338 35.5515 13.9701C35.4394 13.4063 35.4969 12.8219 35.7169 12.2909C35.9369 11.7599 36.3094 11.306 36.7873 10.9866C37.2652 10.6673 37.8271 10.4968 38.4019 10.4968C39.1727 10.4968 39.9119 10.803 40.4569 11.348C41.002 11.8931 41.3082 12.6323 41.3082 13.4031Z" fill="#8C8CA2"/>
</svg>
