<svg width="51" height="52" viewBox="0 0 51 52" fill="none" xmlns="http://www.w3.org/2000/svg">
<path d="M47.1207 0.809326H4.49567C3.46795 0.809326 2.48233 1.21758 1.75563 1.94429C1.02892 2.67099 0.620667 3.65661 0.620667 4.68433V47.3093C0.620667 48.337 1.02892 49.3227 1.75563 50.0494C2.48233 50.7761 3.46795 51.1843 4.49567 51.1843H47.1207C48.1484 51.1843 49.134 50.7761 49.8607 50.0494C50.5874 49.3227 50.9957 48.337 50.9957 47.3093V4.68433C50.9957 3.65661 50.5874 2.67099 49.8607 1.94429C49.134 1.21758 48.1484 0.809326 47.1207 0.809326ZM47.1207 47.3093H4.49567V4.68433H47.1207V47.3093ZM18.0582 22.1218V37.6218C18.0582 38.1357 17.854 38.6285 17.4907 38.9918C17.1273 39.3552 16.6345 39.5593 16.1207 39.5593C15.6068 39.5593 15.114 39.3552 14.7506 38.9918C14.3873 38.6285 14.1832 38.1357 14.1832 37.6218V22.1218C14.1832 21.608 14.3873 21.1152 14.7506 20.7518C15.114 20.3885 15.6068 20.1843 16.1207 20.1843C16.6345 20.1843 17.1273 20.3885 17.4907 20.7518C17.854 21.1152 18.0582 21.608 18.0582 22.1218ZM39.3707 28.9031V37.6218C39.3707 38.1357 39.1665 38.6285 38.8032 38.9918C38.4398 39.3552 37.947 39.5593 37.4332 39.5593C36.9193 39.5593 36.4265 39.3552 36.0631 38.9918C35.6998 38.6285 35.4957 38.1357 35.4957 37.6218V28.9031C35.4957 27.6184 34.9853 26.3864 34.077 25.478C33.1686 24.5696 31.9366 24.0593 30.6519 24.0593C29.3673 24.0593 28.1352 24.5696 27.2269 25.478C26.3185 26.3864 25.8082 27.6184 25.8082 28.9031V37.6218C25.8082 38.1357 25.604 38.6285 25.2407 38.9918C24.8773 39.3552 24.3845 39.5593 23.8707 39.5593C23.3568 39.5593 22.864 39.3552 22.5006 38.9918C22.1373 38.6285 21.9332 38.1357 21.9332 37.6218V22.1218C21.9356 21.6472 22.1121 21.1901 22.4292 20.837C22.7463 20.4839 23.182 20.2595 23.6536 20.2063C24.1252 20.1532 24.5999 20.2749 24.9877 20.5486C25.3755 20.8222 25.6493 21.2286 25.7573 21.6907C27.068 20.8016 28.5961 20.2863 30.1776 20.2001C31.759 20.1139 33.3341 20.4602 34.7336 21.2017C36.1332 21.9431 37.3043 23.0518 38.1213 24.4087C38.9382 25.7655 39.3701 27.3193 39.3707 28.9031ZM19.0269 15.3406C19.0269 15.9154 18.8565 16.4773 18.5371 16.9552C18.2178 17.4331 17.7639 17.8056 17.2328 18.0256C16.7018 18.2456 16.1174 18.3031 15.5537 18.191C14.9899 18.0788 14.4721 17.8021 14.0656 17.3956C13.6592 16.9892 13.3824 16.4713 13.2703 15.9076C13.1581 15.3438 13.2157 14.7594 13.4356 14.2284C13.6556 13.6974 14.0281 13.2435 14.506 12.9241C14.984 12.6048 15.5459 12.4343 16.1207 12.4343C16.8915 12.4343 17.6307 12.7405 18.1757 13.2855C18.7207 13.8306 19.0269 14.5698 19.0269 15.3406Z" fill="#8C8CA2"/>
</svg>
