<svg width="116" height="82" viewBox="0 0 116 82" fill="none" xmlns="http://www.w3.org/2000/svg">
<g clip-path="url(#clip0_1_1085)">
<path style="mix-blend-mode:multiply" d="M61.1733 39.9376C59.6974 37.1471 58.0512 34.3566 56.2063 31.1266C49.8201 41.87 41.8516 53.9109 35.4938 64.6124H46.5348L46.6057 64.5148C50.8135 57.692 56.781 48.9508 60.854 42.0444C61.0509 41.7333 61.1809 41.3859 61.2358 41.0235C61.2907 40.6611 61.2695 40.2915 61.1733 39.9376Z" fill="url(#paint0_linear_1_1085)"/>
<path style="mix-blend-mode:multiply" d="M85.2776 52.4806C85.2351 52.4318 85.1854 52.383 85.1428 52.3271C82.3677 49.6703 80.154 46.5006 78.6289 42.9999C71.7886 31.0078 65.0548 18.9669 58.2996 6.9329C56.5186 3.7657 54.1202 1.48448 50.2388 1.13567C44.9312 0.647333 42.1142 3.84244 39.7868 7.85377C29.427 25.7059 17.1797 45.3928 6.81278 63.2449C6.57862 63.6635 6.36574 64.103 6.13867 64.5983H17.0874C17.4282 64.1869 17.7299 63.7455 17.9886 63.2798C27.1279 47.374 38.2612 29.6893 47.4927 13.8324C47.9894 12.9813 48.5784 12.186 49.366 10.9931C50.2459 12.3883 50.8703 13.344 51.438 14.3207C59.2528 27.8081 67.0581 41.2954 74.854 54.7828C78.9553 61.8497 86.8742 65.861 94.0125 64.5495C97.3265 63.9617 100.433 62.5522 103.038 60.4544C96.9554 59.9364 91.1918 57.5522 86.562 53.6387C86.0979 53.2931 85.6679 52.9054 85.2776 52.4806Z" fill="url(#paint1_linear_1_1085)"/>
<path style="mix-blend-mode:multiply" d="M106.529 38.2353C101.804 29.7173 96.8083 21.3389 91.898 12.9186C90.9401 11.2792 90.0105 9.61184 89.0029 8.00034C88.343 6.93297 87.6476 5.90747 86.8742 4.89592C83.1206 -0.0502177 76.9827 -0.510652 72.8885 4.03087C70.6107 6.56323 69.0213 9.70254 67.2119 12.6256C67.0971 12.9244 67.0485 13.2439 67.0693 13.5627C67.0901 13.8815 67.1798 14.1923 67.3325 14.4743C68.7516 17.1531 70.3056 19.7762 72.0938 22.9155C74.6128 18.8135 76.8692 15.1231 79.4804 10.8606L81.8433 14.837C83.0851 16.9299 84.2488 18.8763 85.3912 20.8575C89.7622 28.4825 94.268 36.0378 98.3764 43.7953C100.576 47.981 99.4195 51.3087 95.7936 53.7992C94.4239 54.7374 92.7859 55.2223 91.117 55.1834C89.4481 55.1445 87.8352 54.5839 86.5123 53.5829C91.1421 57.4965 96.9057 59.8807 102.989 60.3987C109.268 55.2572 111.156 46.5021 106.529 38.2353Z" fill="url(#paint2_linear_1_1085)"/>
<path d="M11.4538 81.0402C11.3152 81.041 11.1812 80.9913 11.0777 80.9007C11.0251 80.8515 10.9839 80.7918 10.957 80.7256C10.93 80.6594 10.918 80.5882 10.9216 80.517V71.0293L6.42995 75.4941C6.31663 75.5832 6.1825 75.6432 6.03969 75.6685C5.9701 75.6733 5.90046 75.6596 5.83806 75.6289C5.77567 75.5982 5.72279 75.5517 5.6849 75.4941L1.06556 70.9944V80.517C1.06556 80.8658 0.881068 81.0402 0.512089 81.0402C0.378014 81.0395 0.24899 80.9898 0.150198 80.9007C0.0999792 80.8501 0.0608439 80.79 0.0352128 80.724C0.00958166 80.658 -0.00199374 80.5875 0.00119351 80.517V69.7038C-0.00654712 69.6007 0.0235514 69.4983 0.086036 69.4151C0.148521 69.3319 0.239263 69.2735 0.341798 69.2504C0.38243 69.2161 0.430431 69.1913 0.482206 69.1778C0.53398 69.1643 0.588172 69.1626 0.640738 69.1727C0.693305 69.1827 0.742888 69.2044 0.785737 69.236C0.828587 69.2675 0.863597 69.3082 0.888163 69.355L6.04677 74.3779L11.0706 69.355C11.1366 69.2635 11.2343 69.1989 11.3453 69.1732C11.4564 69.1475 11.5732 69.1626 11.6737 69.2155C11.7695 69.2576 11.8507 69.3262 11.9074 69.4129C11.9641 69.4996 11.9939 69.6007 11.993 69.7038V80.517C11.9953 80.5887 11.9819 80.66 11.9537 80.7262C11.9256 80.7924 11.8833 80.8519 11.8298 80.9007C11.7271 80.9925 11.5926 81.0424 11.4538 81.0402Z" fill="#EADDFF" stroke="#EADDFF" stroke-miterlimit="10"/>
<path d="M23.9778 70.2619H15.3565C15.0017 70.2619 14.8243 70.0805 14.8243 69.7177C14.8221 69.5854 14.8731 69.4575 14.9662 69.3619C15.0168 69.3115 15.0779 69.2723 15.1452 69.247C15.2125 69.2218 15.2846 69.211 15.3565 69.2155H23.9778C24.0461 69.2148 24.1139 69.2273 24.1772 69.2525C24.2405 69.2776 24.2982 69.3148 24.3468 69.3619C24.3971 69.4073 24.4375 69.4622 24.4656 69.5234C24.4936 69.5845 24.5088 69.6507 24.51 69.7177C24.5119 69.7904 24.4984 69.8627 24.4703 69.93C24.4422 69.9972 24.4001 70.058 24.3468 70.1084C24.2493 70.2055 24.1166 70.2607 23.9778 70.2619ZM24.0488 75.6685H15.3565C15.0017 75.6685 14.8243 75.4871 14.8243 75.1243C14.8221 74.992 14.8731 74.8641 14.9662 74.7685C15.0168 74.7181 15.0779 74.6789 15.1452 74.6536C15.2125 74.6283 15.2846 74.6176 15.3565 74.622H24.0488C24.1171 74.6213 24.1848 74.6339 24.2482 74.659C24.3115 74.6842 24.3691 74.7214 24.4178 74.7685C24.4681 74.8139 24.5085 74.8688 24.5365 74.9299C24.5646 74.9911 24.5797 75.0572 24.581 75.1243C24.5829 75.197 24.5694 75.2693 24.5413 75.3365C24.5132 75.4038 24.4711 75.4646 24.4178 75.515C24.3707 75.5656 24.3138 75.6065 24.2504 75.6352C24.1871 75.6639 24.1185 75.68 24.0488 75.6824V75.6685ZM23.9778 81.0401H15.3565C15.2841 81.0507 15.2102 81.0445 15.1407 81.0219C15.0713 80.9994 15.0081 80.9612 14.9564 80.9103C14.9046 80.8594 14.8657 80.7974 14.8428 80.729C14.8199 80.6607 14.8135 80.5881 14.8243 80.5169C14.8206 80.3802 14.8716 80.2474 14.9662 80.1472C15.0153 80.0943 15.0759 80.053 15.1435 80.0265C15.2111 79.9999 15.2839 79.9887 15.3565 79.9937H23.9778C24.0468 79.9927 24.1152 80.0058 24.1788 80.0323C24.2423 80.0587 24.2995 80.0978 24.3468 80.1472C24.3979 80.1949 24.4386 80.2522 24.4666 80.3157C24.4947 80.3793 24.5094 80.4477 24.51 80.5169C24.5123 80.5886 24.4989 80.66 24.4707 80.7261C24.4426 80.7923 24.4003 80.8518 24.3468 80.9006C24.2459 80.9908 24.1142 81.0405 23.9778 81.0401Z" fill="#EADDFF" stroke="#EADDFF" stroke-miterlimit="10"/>
<path d="M32.2445 81.0401C32.1059 81.0409 31.9719 80.9912 31.8684 80.9006C31.8158 80.8515 31.7747 80.7918 31.7477 80.7255C31.7208 80.6593 31.7087 80.5881 31.7123 80.5169V70.2619H27.9516C27.5968 70.2619 27.4194 70.0805 27.4194 69.7177C27.4172 69.5854 27.4681 69.4575 27.5613 69.3619C27.6119 69.3115 27.6729 69.2723 27.7402 69.247C27.8076 69.2218 27.8796 69.211 27.9516 69.2155H36.5445C36.6128 69.2148 36.6806 69.2273 36.7439 69.2525C36.8072 69.2776 36.8648 69.3148 36.9135 69.3619C36.9638 69.4073 37.0042 69.4622 37.0322 69.5234C37.0603 69.5845 37.0754 69.6507 37.0767 69.7177C37.0786 69.7904 37.0651 69.8627 37.037 69.93C37.0089 69.9972 36.9668 70.058 36.9135 70.1084C36.816 70.2055 36.6833 70.2607 36.5445 70.2619H32.7483V80.5169C32.7505 80.5886 32.7371 80.66 32.709 80.7261C32.6808 80.7923 32.6386 80.8518 32.5851 80.9006C32.4915 80.9845 32.371 81.0339 32.2445 81.0401Z" fill="#EADDFF" stroke="#EADDFF" stroke-miterlimit="10"/>
<path d="M51.4029 81.0401C51.3023 81.0418 51.203 81.0167 51.1156 80.9676C51.0282 80.9185 50.9559 80.8472 50.9062 80.7611L45.9392 70.8898L40.9722 80.7611C40.9504 80.8297 40.9126 80.8923 40.8619 80.9439C40.8111 80.9956 40.7488 81.0348 40.6798 81.0586C40.6109 81.0823 40.5372 81.0898 40.4648 81.0806C40.3923 81.0713 40.3231 81.0455 40.2626 81.0053C39.9291 80.8378 39.844 80.6076 40.0143 80.3076L45.478 69.4945C45.511 69.4009 45.5736 69.32 45.6565 69.2635C45.7394 69.2071 45.8384 69.178 45.9392 69.1806C46.0439 69.1806 46.1464 69.2102 46.2344 69.2659C46.3225 69.3216 46.3924 69.4009 46.4359 69.4945L51.8996 80.3076C51.9424 80.4321 51.9424 80.5669 51.8996 80.6913C51.8566 80.8212 51.7688 80.9323 51.6513 81.0053C51.5713 81.0313 51.4872 81.0431 51.4029 81.0401Z" fill="#EADDFF" stroke="#EADDFF" stroke-miterlimit="10"/>
<path d="M64.53 81.0401C64.4576 81.0507 64.3837 81.0445 64.3142 81.0219C64.2447 80.9994 64.1816 80.9611 64.1298 80.9103C64.0781 80.8594 64.0392 80.7973 64.0163 80.729C63.9933 80.6607 63.987 80.588 63.9978 80.5169V75.1382C63.9957 75.0715 64.0072 75.0051 64.0316 74.9428C64.056 74.8805 64.0927 74.8236 64.1397 74.7755C64.1888 74.7226 64.2493 74.6813 64.3169 74.6548C64.3845 74.6282 64.4574 74.617 64.53 74.622H70.384C70.6745 74.6265 70.9628 74.5725 71.2313 74.4633C71.4998 74.3542 71.7427 74.1921 71.945 73.9871C72.3543 73.572 72.5831 73.0166 72.5831 72.4384C72.5831 71.8603 72.3543 71.3049 71.945 70.8897C71.7421 70.686 71.4989 70.5253 71.2304 70.4173C70.962 70.3093 70.6739 70.2564 70.384 70.2619H64.53C64.1752 70.2619 63.9978 70.0805 63.9978 69.7177C63.9956 69.5854 64.0466 69.4575 64.1397 69.3619C64.1892 69.312 64.2491 69.2731 64.3152 69.2479C64.3812 69.2226 64.4521 69.2115 64.5229 69.2154H70.3556C70.795 69.2127 71.2301 69.3007 71.6328 69.4735C72.4195 69.8007 73.0456 70.4163 73.3784 71.1897C73.556 71.5828 73.6477 72.0082 73.6477 72.4384C73.6477 72.8686 73.556 73.294 73.3784 73.6872C73.2077 74.0688 72.9672 74.4164 72.6688 74.7127C72.3663 75.0046 72.013 75.2409 71.6257 75.4103C71.226 75.5854 70.7932 75.6757 70.3556 75.6754H65.055V80.5239C65.0573 80.5956 65.0439 80.6669 65.0157 80.7331C64.9876 80.7993 64.9453 80.8588 64.8919 80.9075C64.7917 80.9936 64.663 81.0407 64.53 81.0401Z" fill="#EADDFF" stroke="#EADDFF" stroke-miterlimit="10"/>
<path d="M77.0539 81.0401C76.9153 81.0409 76.7814 80.9912 76.6779 80.9006C76.6253 80.8515 76.5841 80.7918 76.5571 80.7255C76.5302 80.6593 76.5181 80.5882 76.5217 80.5169V69.3201C76.5217 69.1813 76.5778 69.0482 76.6776 68.9501C76.7774 68.852 76.9128 68.7969 77.0539 68.7969C77.1264 68.7933 77.1988 68.8052 77.2661 68.8317C77.3335 68.8582 77.3942 68.8987 77.4442 68.9504C77.5364 69.0521 77.5869 69.1838 77.5861 69.3201V80.5169C77.5969 80.5881 77.5905 80.6607 77.5676 80.729C77.5447 80.7974 77.5058 80.8594 77.4541 80.9103C77.4023 80.9612 77.3392 80.9994 77.2697 81.022C77.2002 81.0445 77.1263 81.0507 77.0539 81.0401Z" fill="#EADDFF" stroke="#EADDFF" stroke-miterlimit="10"/>
<path d="M80.9923 81.0402C80.9346 81.0446 80.8767 81.0376 80.8218 81.0197C80.767 81.0017 80.7164 80.9731 80.6729 80.9356C80.6146 80.9005 80.5648 80.8532 80.527 80.7972C80.4893 80.7411 80.4644 80.6776 80.4543 80.6111C80.4441 80.5447 80.4489 80.4768 80.4683 80.4123C80.4877 80.3478 80.5212 80.2883 80.5665 80.2379L84.6111 75.1453L80.5665 70.0876C80.5145 70.037 80.4752 69.9751 80.4518 69.907C80.4285 69.8388 80.4217 69.7662 80.4321 69.6949C80.4424 69.6237 80.4696 69.5559 80.5114 69.4968C80.5533 69.4378 80.6086 69.3893 80.6729 69.355C80.7196 69.2999 80.7803 69.2579 80.8489 69.2333C80.9174 69.2088 80.9914 69.2027 81.0632 69.2155C81.2045 69.2376 81.3317 69.3126 81.418 69.4248L85.2852 74.3082L89.1878 69.4248C89.2301 69.3687 89.2831 69.3213 89.344 69.2854C89.4049 69.2495 89.4724 69.2257 89.5426 69.2155C89.6144 69.2034 89.6882 69.2099 89.7566 69.2343C89.825 69.2588 89.8858 69.3004 89.9329 69.355C90.0439 69.4426 90.1195 69.5663 90.1458 69.7038C90.1549 69.7743 90.1467 69.8458 90.122 69.9126C90.0974 69.9793 90.0568 70.0393 90.0039 70.0876L85.9593 75.1453L90.0039 80.2379C90.0573 80.2858 90.0982 80.3458 90.1229 80.4126C90.1476 80.4794 90.1555 80.5512 90.1458 80.6216C90.1177 80.7585 90.0425 80.8817 89.9329 80.9704C89.8826 81.0206 89.8215 81.0592 89.7542 81.0832C89.6868 81.1073 89.6149 81.1164 89.5435 81.1097C89.4721 81.103 89.4032 81.0808 89.3417 81.0446C89.2802 81.0085 89.2276 80.9593 89.1878 80.9007L85.2852 76.0173L81.418 80.9007C81.2992 80.9987 81.147 81.0485 80.9923 81.0402Z" fill="#EADDFF" stroke="#EADDFF" stroke-miterlimit="10"/>
<path d="M102.13 70.2619H93.5162C93.1614 70.2619 92.984 70.0805 92.984 69.7177C92.9818 69.5854 93.0327 69.4575 93.1259 69.3619C93.1765 69.3115 93.2375 69.2723 93.3049 69.247C93.3722 69.2218 93.4442 69.211 93.5162 69.2155H102.13C102.27 69.2145 102.405 69.267 102.506 69.3619C102.556 69.4076 102.595 69.4628 102.622 69.524C102.649 69.5852 102.663 69.6511 102.663 69.7177C102.665 69.7899 102.653 69.8619 102.626 69.9291C102.599 69.9964 102.559 70.0574 102.506 70.1084C102.406 70.2053 102.271 70.2603 102.13 70.2619ZM102.208 75.6685H93.5162C93.1614 75.6685 92.984 75.4871 92.984 75.1243C92.9818 74.992 93.0327 74.8641 93.1259 74.7685C93.1765 74.7181 93.2375 74.6789 93.3049 74.6536C93.3722 74.6283 93.4442 74.6176 93.5162 74.622H102.208C102.277 74.6213 102.345 74.6339 102.408 74.659C102.471 74.6842 102.529 74.7214 102.577 74.7685C102.628 74.8139 102.668 74.8688 102.696 74.9299C102.724 74.9911 102.739 75.0572 102.741 75.1243C102.743 75.197 102.729 75.2693 102.701 75.3365C102.673 75.4038 102.631 75.4646 102.577 75.515C102.53 75.5656 102.473 75.6065 102.41 75.6352C102.347 75.6639 102.278 75.68 102.208 75.6824V75.6685ZM102.13 81.0401H93.5162C93.4438 81.0507 93.3699 81.0445 93.3004 81.0219C93.2309 80.9994 93.1678 80.9612 93.116 80.9103C93.0643 80.8594 93.0254 80.7974 93.0025 80.729C92.9795 80.6607 92.9732 80.5881 92.984 80.5169C92.9803 80.3802 93.0312 80.2474 93.1259 80.1472C93.175 80.0943 93.2355 80.053 93.3031 80.0265C93.3707 79.9999 93.4436 79.9887 93.5162 79.9937H102.13C102.272 79.9937 102.407 80.0488 102.507 80.1469C102.607 80.2451 102.663 80.3781 102.663 80.5169C102.666 80.5881 102.654 80.6593 102.627 80.7255C102.6 80.7918 102.559 80.8515 102.506 80.9006C102.403 80.9912 102.269 81.0409 102.13 81.0401Z" fill="#EADDFF" stroke="#EADDFF" stroke-miterlimit="10"/>
<path d="M114.725 81.0402H106.083C106.01 81.0508 105.937 81.0446 105.867 81.0221C105.798 80.9995 105.734 80.9613 105.683 80.9104C105.631 80.8595 105.592 80.7975 105.569 80.7292C105.546 80.6608 105.54 80.5882 105.551 80.517V69.7039C105.55 69.5676 105.6 69.4359 105.693 69.3341C105.743 69.2824 105.803 69.242 105.871 69.2155C105.938 69.189 106.01 69.1771 106.083 69.1807C106.224 69.1807 106.359 69.2358 106.459 69.3339C106.559 69.432 106.615 69.5651 106.615 69.7039V79.9938H114.704C114.845 79.9938 114.981 80.0489 115.08 80.147C115.18 80.2452 115.236 80.3783 115.236 80.517C115.24 80.5883 115.228 80.6594 115.201 80.7256C115.174 80.7919 115.133 80.8516 115.08 80.9007C114.982 80.9867 114.857 81.036 114.725 81.0402Z" fill="#EADDFF" stroke="#EADDFF" stroke-miterlimit="10"/>
</g>
<defs>
<linearGradient id="paint0_linear_1_1085" x1="121.36" y1="7.53302" x2="30.309" y2="61.7831" gradientUnits="userSpaceOnUse">
<stop stop-color="#C5A3E0"/>
<stop offset="1" stop-color="#662483"/>
</linearGradient>
<linearGradient id="paint1_linear_1_1085" x1="-7.51356" y1="32.9193" x2="95.4388" y2="32.9193" gradientUnits="userSpaceOnUse">
<stop stop-color="#C5A3E0"/>
<stop offset="1" stop-color="#662483"/>
</linearGradient>
<linearGradient id="paint2_linear_1_1085" x1="123.644" y1="11.3698" x2="32.5939" y2="65.6199" gradientUnits="userSpaceOnUse">
<stop stop-color="#C5A3E0"/>
<stop offset="1" stop-color="#662483"/>
</linearGradient>
<clipPath id="clip0_1_1085">
<rect width="115.237" height="80.2236" fill="white" transform="translate(0 0.888184)"/>
</clipPath>
</defs>
</svg>
