<svg width="21" height="20" viewBox="0 0 21 20" fill="none" xmlns="http://www.w3.org/2000/svg">
<path d="M16.2413 17.4968H12.3773C13.0264 16.9172 13.6385 16.2975 14.2101 15.6414C16.3546 13.175 17.4913 10.575 17.4913 8.12183C17.4913 6.29846 16.767 4.54978 15.4777 3.26047C14.1884 1.97115 12.4397 1.24683 10.6163 1.24683C8.79297 1.24683 7.04429 1.97115 5.75497 3.26047C4.46566 4.54978 3.74133 6.29846 3.74133 8.12183C3.74133 10.575 4.87493 13.175 7.02258 15.6414C7.59415 16.2975 8.20629 16.9172 8.8554 17.4968H4.99133C4.82557 17.4968 4.6666 17.5627 4.54939 17.6799C4.43218 17.7971 4.36633 17.9561 4.36633 18.1218C4.36633 18.2876 4.43218 18.4466 4.54939 18.5638C4.6666 18.681 4.82557 18.7468 4.99133 18.7468H16.2413C16.4071 18.7468 16.5661 18.681 16.6833 18.5638C16.8005 18.4466 16.8663 18.2876 16.8663 18.1218C16.8663 17.9561 16.8005 17.7971 16.6833 17.6799C16.5661 17.5627 16.4071 17.4968 16.2413 17.4968ZM4.99133 8.12183C4.99133 6.62998 5.58397 5.19924 6.63886 4.14435C7.69375 3.08946 9.12449 2.49683 10.6163 2.49683C12.1082 2.49683 13.5389 3.08946 14.5938 4.14435C15.6487 5.19924 16.2413 6.62998 16.2413 8.12183C16.2413 12.5929 11.9077 16.325 10.6163 17.3406C9.32493 16.325 4.99133 12.5929 4.99133 8.12183ZM13.7413 8.12183C13.7413 7.50376 13.5581 6.89957 13.2147 6.38567C12.8713 5.87177 12.3832 5.47123 11.8122 5.2347C11.2412 4.99818 10.6129 4.93629 10.0067 5.05687C9.40049 5.17745 8.84366 5.47508 8.40662 5.91212C7.96959 6.34916 7.67196 6.90598 7.55138 7.51217C7.4308 8.11836 7.49269 8.74669 7.72921 9.31771C7.96573 9.88873 8.36627 10.3768 8.88018 10.7202C9.39408 11.0635 9.99827 11.2468 10.6163 11.2468C11.4451 11.2468 12.24 10.9176 12.826 10.3315C13.4121 9.74548 13.7413 8.95063 13.7413 8.12183ZM8.74133 8.12183C8.74133 7.75099 8.8513 7.38847 9.05733 7.08013C9.26336 6.77179 9.55619 6.53147 9.8988 6.38955C10.2414 6.24764 10.6184 6.21051 10.9821 6.28285C11.3458 6.3552 11.6799 6.53378 11.9422 6.796C12.2044 7.05822 12.383 7.39232 12.4553 7.75603C12.5277 8.11975 12.4905 8.49675 12.3486 8.83936C12.2067 9.18197 11.9664 9.4748 11.658 9.68083C11.3497 9.88686 10.9872 9.99683 10.6163 9.99683C10.1191 9.99683 9.64214 9.79928 9.29051 9.44765C8.93888 9.09602 8.74133 8.61911 8.74133 8.12183Z" fill="#DB4FD7"/>
</svg>
