<svg width="55" height="40" viewBox="0 0 55 40" fill="none" xmlns="http://www.w3.org/2000/svg">
<path d="M54.9332 25.1578C54.9332 29.0595 54.1654 32.3968 52.7123 34.8066C50.9129 37.7928 48.1107 39.3718 44.6257 39.3718C37.8589 39.3718 33.0539 30.4109 27.968 20.9123C23.846 13.2156 19.1742 4.49683 14.73 4.49683C12.4583 4.49683 9.90082 6.9187 7.88824 10.956C5.74744 15.3875 4.61041 20.2366 4.55817 25.1578C4.55817 28.3547 5.13457 30.9994 6.22442 32.8061C7.31426 34.6128 8.87395 35.4968 10.9907 35.4968C14.6525 35.4968 18.4622 29.5535 21.7026 23.7386C21.9531 23.289 22.372 22.9573 22.8671 22.8165C23.3621 22.6757 23.8928 22.7373 24.3425 22.9878C24.7921 23.2383 25.1238 23.6572 25.2646 24.1523C25.4054 24.6473 25.3438 25.1781 25.0932 25.6277C21.3805 32.2782 16.9267 39.3718 10.9907 39.3718C7.50074 39.3718 4.69379 37.7928 2.90403 34.8066C1.4509 32.3847 0.683167 29.0595 0.683167 25.1578C0.740258 19.6381 2.01546 14.1991 4.4177 9.22917C7.17864 3.67823 10.8405 0.621826 14.73 0.621826C21.4968 0.621826 26.2993 9.58276 31.3877 19.0814C35.5073 26.7781 40.1791 35.4968 44.6257 35.4968C46.7424 35.4968 48.3021 34.6177 49.3919 32.8061C50.4818 30.9946 51.0582 28.3547 51.0582 25.1578C51.0067 20.2368 49.8705 15.3877 47.7305 10.956C45.73 6.9187 43.1604 4.49683 40.8863 4.49683C38.8616 4.49683 36.6044 6.30839 33.9815 10.0381C33.8372 10.2513 33.6519 10.4337 33.4363 10.5745C33.2208 10.7153 32.9793 10.8118 32.726 10.8582C32.4728 10.9046 32.2128 10.9001 31.9613 10.8449C31.7098 10.7896 31.4718 10.6848 31.2613 10.5366C31.0508 10.3884 30.8719 10.1996 30.7351 9.98148C30.5984 9.76332 30.5065 9.52008 30.4648 9.26599C30.4231 9.0119 30.4325 8.75205 30.4924 8.50164C30.5523 8.25122 30.6616 8.01525 30.8137 7.80753C32.9934 4.72206 36.384 0.621826 40.8863 0.621826C44.7734 0.621826 48.4353 3.67823 51.1962 9.22917C53.5993 14.1989 54.8753 19.6379 54.9332 25.1578Z" fill="#8C8CA2"/>
</svg>
