<svg width="21" height="20" viewBox="0 0 21 20" fill="none" xmlns="http://www.w3.org/2000/svg">
<path d="M17.989 12.3766L14.3085 10.7274L14.2984 10.7227C14.1073 10.641 13.8989 10.6082 13.6919 10.6273C13.485 10.6464 13.2861 10.7168 13.1132 10.8321C13.0929 10.8455 13.0733 10.8601 13.0546 10.8758L11.1531 12.4969C9.94837 11.9118 8.70462 10.6774 8.11947 9.48832L9.7429 7.55785C9.75853 7.53832 9.77337 7.51879 9.78743 7.49769C9.90027 7.32527 9.96873 7.12763 9.98672 6.92236C10.0047 6.71709 9.97168 6.51055 9.89056 6.32113V6.31176L8.23665 2.62504C8.12942 2.37759 7.94503 2.17146 7.71102 2.03741C7.477 1.90337 7.20591 1.8486 6.93822 1.88129C5.8796 2.02059 4.90789 2.54048 4.20457 3.34386C3.50125 4.14724 3.11443 5.17917 3.11634 6.24691C3.11634 12.45 8.16322 17.4969 14.3663 17.4969C15.4341 17.4988 16.466 17.112 17.2694 16.4087C18.0728 15.7054 18.5927 14.7337 18.732 13.675C18.7647 13.4074 18.7101 13.1364 18.5762 12.9024C18.4423 12.6684 18.2363 12.484 17.989 12.3766ZM14.3663 16.2469C11.7151 16.244 9.17321 15.1895 7.29847 13.3148C5.42373 11.44 4.36924 8.89819 4.36634 6.24691C4.3634 5.48401 4.63825 4.74613 5.13957 4.17106C5.64089 3.59599 6.33439 3.22306 7.09056 3.12191C7.09025 3.12503 7.09025 3.12817 7.09056 3.13129L8.73118 6.80316L7.11634 8.73597C7.09995 8.75483 7.08506 8.77495 7.07181 8.79613C6.95424 8.97654 6.88527 9.18425 6.87159 9.39915C6.8579 9.61404 6.89996 9.82883 6.99368 10.0227C7.7015 11.4704 9.16009 12.918 10.6234 13.625C10.8187 13.7179 11.0347 13.7585 11.2504 13.7429C11.466 13.7273 11.674 13.656 11.8538 13.536C11.8739 13.5225 11.8932 13.5079 11.9117 13.4922L13.8109 11.8719L17.4827 13.5164C17.4827 13.5164 17.489 13.5164 17.4913 13.5164C17.3914 14.2737 17.0191 14.9686 16.4439 15.4711C15.8687 15.9737 15.1301 16.2495 14.3663 16.2469Z" fill="#DB4FD7"/>
</svg>
