<svg width="44" height="52" viewBox="0 0 44 52" fill="none" xmlns="http://www.w3.org/2000/svg">
<path d="M43.0582 22.1219C43.0582 27.5881 41.1449 32.5844 37.6743 36.1954C34.4339 39.5594 30.0406 41.4969 25.6207 41.4969C21.2904 41.4969 18.3986 40.0777 16.5556 38.5906L13.9448 49.6877C13.8453 50.1134 13.6048 50.493 13.2623 50.7647C12.9197 51.0365 12.4954 51.1844 12.0582 51.1844C11.9082 51.1842 11.7587 51.1672 11.6125 51.1335C11.3639 51.0764 11.1289 50.9708 10.9212 50.8227C10.7135 50.6746 10.537 50.4869 10.402 50.2705C10.267 50.054 10.1761 49.813 10.1344 49.5613C10.0928 49.3095 10.1013 49.0521 10.1594 48.8037L17.9094 15.8662C18.027 15.3658 18.3385 14.9326 18.7754 14.6619C19.2123 14.3912 19.7389 14.3052 20.2393 14.4227C20.7396 14.5403 21.1728 14.8518 21.4435 15.2887C21.7142 15.7256 21.8002 16.2522 21.6827 16.7526L17.5897 34.1416C18.355 35.2 20.6074 37.6219 25.6207 37.6219C32.2881 37.6219 39.1832 31.8239 39.1832 22.1219C39.1821 19.4478 38.5661 16.8098 37.3827 14.4118C36.1993 12.0138 34.4802 9.92016 32.3585 8.29266C30.2367 6.66517 27.769 5.54746 25.1463 5.02597C22.5235 4.50448 19.816 4.59318 17.233 5.2852C14.65 5.97723 12.2608 7.25404 10.2501 9.01691C8.23938 10.7798 6.66104 12.9815 5.63712 15.4518C4.6132 17.922 4.17114 20.5947 4.34511 23.2631C4.51908 25.9316 5.30443 28.5242 6.64043 30.8406C6.88143 31.2844 6.93961 31.8048 6.80259 32.2909C6.66556 32.777 6.34416 33.1903 5.90685 33.4429C5.46954 33.6955 4.95088 33.7674 4.46136 33.6432C3.97185 33.519 3.55016 33.2086 3.28613 32.7781C1.65241 29.947 0.691788 26.778 0.47856 23.5163C0.265332 20.2545 0.805213 16.9874 2.05645 13.9677C3.30768 10.948 5.23674 8.2565 7.69443 6.10145C10.1521 3.94641 13.0726 2.38556 16.2299 1.5396C19.3872 0.693645 22.6968 0.585264 25.9028 1.22284C29.1087 1.86041 32.125 3.22685 34.7184 5.21648C37.3118 7.20611 39.4128 9.76561 40.8589 12.697C42.3051 15.6284 43.0575 18.8532 43.0582 22.1219Z" fill="#8C8CA2"/>
</svg>
