<svg width="99" height="99" viewBox="0 0 99 99" fill="none" xmlns="http://www.w3.org/2000/svg">
<path d="M73.7648 19.9204H24.7298C23.5106 19.9204 22.3413 20.4047 21.4792 21.2668C20.6171 22.129 20.1328 23.2982 20.1328 24.5174V73.5524C20.1328 74.7716 20.6171 75.9409 21.4792 76.803C22.3413 77.6651 23.5106 78.1495 24.7298 78.1495H73.7648C74.984 78.1495 76.1533 77.6651 77.0154 76.803C77.8775 75.9409 78.3618 74.7716 78.3618 73.5524V24.5174C78.3618 23.2982 77.8775 22.129 77.0154 21.2668C76.1533 20.4047 74.984 19.9204 73.7648 19.9204ZM75.2971 73.5524C75.2971 73.9588 75.1357 74.3486 74.8483 74.636C74.561 74.9233 74.1712 75.0848 73.7648 75.0848H24.7298C24.3234 75.0848 23.9336 74.9233 23.6463 74.636C23.3589 74.3486 23.1975 73.9588 23.1975 73.5524V24.5174C23.1975 24.111 23.3589 23.7213 23.6463 23.4339C23.9336 23.1465 24.3234 22.9851 24.7298 22.9851H73.7648C74.1712 22.9851 74.561 23.1465 74.8483 23.4339C75.1357 23.7213 75.2971 24.111 75.2971 24.5174V73.5524ZM90.6206 21.4528V76.6171C90.6206 77.0235 90.4591 77.4133 90.1718 77.7007C89.8844 77.988 89.4946 78.1495 89.0882 78.1495C88.6818 78.1495 88.2921 77.988 88.0047 77.7007C87.7173 77.4133 87.5559 77.0235 87.5559 76.6171V21.4528C87.5559 21.0464 87.7173 20.6566 88.0047 20.3692C88.2921 20.0819 88.6818 19.9204 89.0882 19.9204C89.4946 19.9204 89.8844 20.0819 90.1718 20.3692C90.4591 20.6566 90.6206 21.0464 90.6206 21.4528ZM10.9387 21.4528V76.6171C10.9387 77.0235 10.7773 77.4133 10.4899 77.7007C10.2025 77.988 9.81277 78.1495 9.40637 78.1495C8.99996 78.1495 8.61021 77.988 8.32284 77.7007C8.03547 77.4133 7.87402 77.0235 7.87402 76.6171V21.4528C7.87402 21.0464 8.03547 20.6566 8.32284 20.3692C8.61021 20.0819 8.99996 19.9204 9.40637 19.9204C9.81277 19.9204 10.2025 20.0819 10.4899 20.3692C10.7773 20.6566 10.9387 21.0464 10.9387 21.4528Z" fill="#DB4FD7"/>
</svg>
