<svg width="51" height="54" viewBox="0 0 51 54" fill="none" xmlns="http://www.w3.org/2000/svg">
<path d="M49.0582 14.4343C45.976 14.4311 43.021 13.2053 40.8416 11.0259C38.6622 8.84649 37.4364 5.89148 37.4332 2.80933C37.4332 2.29547 37.229 1.80266 36.8657 1.43931C36.5023 1.07595 36.0095 0.871826 35.4957 0.871826H25.8082C25.2943 0.871826 24.8015 1.07595 24.4381 1.43931C24.0748 1.80266 23.8707 2.29547 23.8707 2.80933V34.7781C23.8703 35.6448 23.6373 36.4956 23.1961 37.2416C22.7548 37.9877 22.1215 38.6016 21.3621 39.0195C20.6028 39.4374 19.7452 39.6438 18.8788 39.6173C18.0125 39.5908 17.1691 39.3324 16.4367 38.8689C15.7043 38.4054 15.1097 37.7539 14.7149 36.9822C14.3201 36.2106 14.1395 35.3472 14.1921 34.4821C14.2447 33.6169 14.5284 32.7817 15.0137 32.0636C15.4991 31.3455 16.1682 30.7707 16.9514 30.3993C17.2826 30.2421 17.5625 29.9941 17.7584 29.6842C17.9543 29.3742 18.0583 29.015 18.0582 28.6483V18.3093C18.0583 18.0261 17.9963 17.7463 17.8766 17.4896C17.7569 17.233 17.5824 17.0056 17.3654 16.8237C17.1483 16.6417 16.894 16.5096 16.6204 16.4365C16.3468 16.3635 16.0604 16.3513 15.7816 16.4009C7.13793 17.9412 0.620667 25.8414 0.620667 34.7781C0.620667 39.6597 2.55989 44.3414 6.01173 47.7933C9.46357 51.2451 14.1453 53.1843 19.0269 53.1843C23.9086 53.1843 28.5903 51.2451 32.0421 47.7933C35.4939 44.3414 37.4332 39.6597 37.4332 34.7781V25.1608C41.0215 27.033 45.0108 28.0062 49.0582 27.9968C49.572 27.9968 50.0648 27.7927 50.4282 27.4293C50.7915 27.066 50.9957 26.5732 50.9957 26.0593V16.3718C50.9957 15.858 50.7915 15.3652 50.4282 15.0018C50.0648 14.6385 49.572 14.4343 49.0582 14.4343ZM47.1207 24.0346C43.3344 23.6991 39.7089 22.3478 36.6267 20.1233C36.337 19.915 35.9954 19.7908 35.6396 19.7643C35.2838 19.7378 34.9276 19.81 34.6102 19.9731C34.2928 20.1362 34.0267 20.3837 33.841 20.6884C33.6554 20.9931 33.5575 21.3432 33.5582 21.7V34.7781C33.5582 38.632 32.0272 42.3281 29.3021 45.0532C26.5769 47.7784 22.8808 49.3093 19.0269 49.3093C15.173 49.3093 11.4769 47.7784 8.75177 45.0532C6.02663 42.3281 4.49567 38.632 4.49567 34.7781C4.49567 28.5054 8.52567 22.8794 14.1832 20.8281V27.5294C12.9307 28.3662 11.9164 29.5133 11.2391 30.8588C10.5619 32.2043 10.2447 33.7023 10.3187 35.2068C10.3926 36.7113 10.8551 38.1709 11.661 39.4435C12.4669 40.7161 13.5887 41.7582 14.9172 42.4683C16.2457 43.1783 17.7355 43.532 19.2413 43.495C20.7472 43.4579 22.2178 43.0314 23.5097 42.2569C24.8017 41.4824 25.871 40.3864 26.6133 39.0757C27.3557 37.7651 27.7458 36.2844 27.7457 34.7781V4.74683H33.6793C34.115 8.15945 35.6713 11.3309 38.1039 13.7635C40.5366 16.1962 43.708 17.7525 47.1207 18.1882V24.0346Z" fill="#8C8CA2"/>
</svg>
