<svg width="36" height="56" viewBox="0 0 36 56" fill="none" xmlns="http://www.w3.org/2000/svg">
<path d="M33.3082 26.0593C33.822 26.0593 34.3148 25.8552 34.6782 25.4918C35.0415 25.1285 35.2457 24.6357 35.2457 24.1218V14.4343C35.2457 13.9205 35.0415 13.4277 34.6782 13.0643C34.3148 12.701 33.822 12.4968 33.3082 12.4968H23.6207V2.80933C23.6207 2.29547 23.4165 1.80266 23.0532 1.43931C22.6898 1.07595 22.197 0.871826 21.6832 0.871826H13.9332C13.4193 0.871826 12.9265 1.07595 12.5631 1.43931C12.1998 1.80266 11.9957 2.29547 11.9957 2.80933C11.9957 5.37861 10.975 7.84266 9.15826 9.65942C7.3415 11.4762 4.87745 12.4968 2.30817 12.4968C1.79431 12.4968 1.3015 12.701 0.938147 13.0643C0.574796 13.4277 0.370667 13.9205 0.370667 14.4343V24.1218C0.370667 24.6357 0.574796 25.1285 0.938147 25.4918C1.3015 25.8552 1.79431 26.0593 2.30817 26.0593H8.12067V39.6218C8.12515 43.7313 9.75963 47.6712 12.6655 50.577C15.5713 53.4829 19.5112 55.1173 23.6207 55.1218H33.3082C33.822 55.1218 34.3148 54.9177 34.6782 54.5543C35.0415 54.191 35.2457 53.6982 35.2457 53.1843V41.5593C35.2457 41.0455 35.0415 40.5527 34.6782 40.1893C34.3148 39.826 33.822 39.6218 33.3082 39.6218H25.5582C25.0443 39.6218 24.5515 39.4177 24.1881 39.0543C23.8248 38.691 23.6207 38.1982 23.6207 37.6843V26.0593H33.3082ZM25.5582 43.4968H31.3707V51.2468H23.6207C20.5385 51.2436 17.5835 50.0178 15.4041 47.8384C13.2247 45.659 11.9989 42.704 11.9957 39.6218V24.1218C11.9957 23.608 11.7915 23.1152 11.4282 22.7518C11.0648 22.3885 10.572 22.1843 10.0582 22.1843H4.24567V16.2338C7.14181 15.8108 9.82411 14.4645 11.8937 12.3949C13.9633 10.3253 15.3097 7.64297 15.7326 4.74683H19.7457V14.4343C19.7457 14.9482 19.9498 15.441 20.3131 15.8043C20.6765 16.1677 21.1693 16.3718 21.6832 16.3718H31.3707V22.1843H21.6832C21.1693 22.1843 20.6765 22.3885 20.3131 22.7518C19.9498 23.1152 19.7457 23.608 19.7457 24.1218V37.6843C19.7457 39.2259 20.3581 40.7043 21.4481 41.7944C22.5382 42.8844 24.0166 43.4968 25.5582 43.4968Z" fill="#8C8CA2"/>
</svg>
