<svg width="44" height="48" viewBox="0 0 44 48" fill="none" xmlns="http://www.w3.org/2000/svg">
<path d="M42.8179 44.2703L27.657 20.4439L42.6169 3.9873C42.9553 3.60591 43.1296 3.10653 43.1022 2.59743C43.0749 2.08834 42.8479 1.61055 42.4706 1.26766C42.0933 0.924777 41.5961 0.744424 41.0867 0.765707C40.5773 0.786989 40.0968 1.00819 39.7494 1.38136L25.4991 17.0557L15.6929 1.64534C15.5181 1.37011 15.2766 1.14346 14.9908 0.986393C14.705 0.829328 14.3843 0.746927 14.0582 0.746826H2.43317C2.08577 0.746657 1.74473 0.839892 1.44574 1.01677C1.14675 1.19364 0.90081 1.44765 0.733681 1.7522C0.566551 2.05675 0.484378 2.40063 0.495764 2.74783C0.50715 3.09503 0.611677 3.43279 0.7984 3.72573L15.9593 27.5497L0.999416 44.0185C0.824718 44.2061 0.689004 44.4266 0.600139 44.6671C0.511275 44.9076 0.471028 45.1633 0.48173 45.4195C0.492433 45.6757 0.553874 45.9272 0.66249 46.1594C0.771106 46.3917 0.924736 46.6 1.11448 46.7725C1.30422 46.9449 1.5263 47.078 1.76785 47.164C2.0094 47.2499 2.2656 47.2871 2.52163 47.2733C2.77765 47.2596 3.02839 47.1951 3.25932 47.0837C3.49024 46.9723 3.69677 46.8162 3.86691 46.6244L18.1172 30.95L27.9234 46.3604C28.0997 46.6334 28.3418 46.8577 28.6275 47.0126C28.9132 47.1675 29.2332 47.248 29.5582 47.2468H41.1832C41.5302 47.2467 41.8708 47.1534 42.1694 46.9767C42.4681 46.7999 42.7137 46.5462 42.8808 46.242C43.0478 45.9379 43.1301 45.5944 43.1191 45.2476C43.108 44.9007 43.004 44.5632 42.8179 44.2703ZM30.6214 43.3718L5.96184 4.62183H12.9853L37.6545 43.3718H30.6214Z" fill="#8C8CA2"/>
</svg>
