<svg width="55" height="44" viewBox="0 0 55 44" fill="none" xmlns="http://www.w3.org/2000/svg">
<path d="M36.6335 20.3839L25.0085 12.6339C24.7166 12.4391 24.3774 12.3273 24.0269 12.3103C23.6765 12.2934 23.328 12.3719 23.0187 12.5375C22.7094 12.7031 22.4508 12.9495 22.2707 13.2506C22.0905 13.5517 21.9954 13.896 21.9957 14.2468V29.7468C21.9954 30.0977 22.0905 30.442 22.2707 30.7431C22.4508 31.0441 22.7094 31.2906 23.0187 31.4562C23.328 31.6218 23.6765 31.7003 24.0269 31.6833C24.3774 31.6663 24.7166 31.5545 25.0085 31.3598L36.6335 23.6098C36.8992 23.4329 37.1172 23.1932 37.2679 22.9118C37.4187 22.6304 37.4976 22.3161 37.4976 21.9968C37.4976 21.6776 37.4187 21.3633 37.2679 21.0819C37.1172 20.8005 36.8992 20.5607 36.6335 20.3839ZM25.8707 26.1261V17.8797L32.0658 21.9968L25.8707 26.1261ZM53.56 7.83371C53.3318 6.94088 52.8945 6.1151 52.2844 5.42451C51.6742 4.73391 50.9086 4.19829 50.0507 3.86184C41.7485 0.655273 28.5347 0.684335 27.8082 0.684335C27.0816 0.684335 13.8679 0.655273 5.56567 3.86184C4.70775 4.19829 3.94212 4.73391 3.33196 5.42451C2.72179 6.1151 2.28457 6.94088 2.05637 7.83371C1.4291 10.2507 0.683167 14.6682 0.683167 21.9968C0.683167 29.3254 1.4291 33.7429 2.05637 36.16C2.28423 37.0532 2.7213 37.8795 3.33148 38.5705C3.94167 39.2616 4.70747 39.7976 5.56567 40.1343C13.5191 43.2028 25.9675 43.3093 27.6483 43.3093H27.968C29.6488 43.3093 42.1045 43.2028 50.0507 40.1343C50.9089 39.7976 51.6747 39.2616 52.2849 38.5705C52.895 37.8795 53.3321 37.0532 53.56 36.16C54.1872 33.7381 54.9332 29.3254 54.9332 21.9968C54.9332 14.6682 54.1872 10.2507 53.56 7.83371ZM49.8085 35.2009C49.7347 35.498 49.5915 35.7735 49.3907 36.0046C49.1899 36.2357 48.9372 36.4159 48.6532 36.5305C40.988 39.49 27.9511 39.4368 27.8251 39.4368H27.8082C27.6774 39.4368 14.6501 39.4852 6.98004 36.5305C6.69613 36.4159 6.44341 36.2357 6.2426 36.0046C6.04179 35.7735 5.89862 35.498 5.82481 35.2009C5.23629 32.9897 4.55817 28.9161 4.55817 21.9968C4.55817 15.0775 5.23629 11.0039 5.80785 8.80488C5.88029 8.50598 6.02285 8.22861 6.22373 7.99572C6.42461 7.76283 6.67805 7.58111 6.96309 7.46559C14.3547 4.6102 26.7401 4.55934 27.7549 4.55934H27.8203C27.9511 4.55934 40.9904 4.51574 48.6484 7.46559C48.9323 7.58017 49.185 7.76041 49.3858 7.99153C49.5867 8.22264 49.7298 8.49806 49.8036 8.7952C50.38 11.0039 51.0582 15.0775 51.0582 21.9968C51.0582 28.9161 50.38 32.9897 49.8085 35.1888V35.2009Z" fill="#8C8CA2"/>
</svg>
