<svg width="50" height="54" viewBox="0 0 50 54" fill="none" xmlns="http://www.w3.org/2000/svg">
<path d="M47.7075 12.8708L26.395 1.20218C25.9673 0.96815 25.4876 0.84549 25 0.84549C24.5124 0.84549 24.0327 0.96815 23.605 1.20218L2.2925 12.8708C1.8353 13.1209 1.45377 13.4894 1.1879 13.9377C0.922016 14.3859 0.781564 14.8974 0.78125 15.4186V38.5814C0.781564 39.1026 0.922016 39.6141 1.1879 40.0623C1.45377 40.5106 1.8353 40.8791 2.2925 41.1292L23.605 52.7978C24.0324 53.0329 24.5122 53.1562 25 53.1562C25.4878 53.1562 25.9676 53.0329 26.395 52.7978L47.7075 41.1292C48.1647 40.8791 48.5462 40.5106 48.8121 40.0623C49.078 39.6141 49.2184 39.1026 49.2188 38.5814V15.4186C49.2184 14.8974 49.078 14.3859 48.8121 13.9377C48.5462 13.4894 48.1647 13.1209 47.7075 12.8708ZM24.535 2.90233C24.6771 2.82301 24.8372 2.78137 25 2.78137C25.1628 2.78137 25.3229 2.82301 25.465 2.90233L46.4748 14.4062L25 26.1572L3.52523 14.4062L24.535 2.90233ZM3.2225 39.4315C3.06998 39.348 2.94273 39.2251 2.85409 39.0755C2.76546 38.9259 2.71871 38.7553 2.71875 38.5814V16.1718L24.0312 27.8355V50.8216L3.2225 39.4315ZM46.7775 39.4315L25.9688 50.8143V27.8355L47.2812 16.1718V38.5814C47.2809 38.7548 47.2339 38.925 47.1453 39.0741C47.0567 39.2232 46.9297 39.3458 46.7775 39.4291V39.4315Z" fill="#8C8CA2"/>
</svg>
