<svg width="220" height="220" viewBox="0 0 220 220" fill="none" xmlns="http://www.w3.org/2000/svg">
<path d="M110 0C88.2441 0 66.9767 6.45139 48.8873 18.5383C30.7979 30.6253 16.6989 47.8049 8.3733 67.9048C0.0476595 88.0047 -2.1307 110.122 2.11367 131.46C6.35804 152.798 16.8345 172.398 32.2183 187.782C47.6021 203.165 67.2022 213.642 88.5401 217.886C109.878 222.131 131.995 219.952 152.095 211.627C172.195 203.301 189.375 189.202 201.462 171.113C213.549 153.023 220 131.756 220 110C219.968 80.836 208.368 52.8757 187.746 32.2536C167.124 11.6316 139.164 0.0320276 110 0ZM211.2 110C211.2 121.176 186.714 133.331 148.379 138.38C149.171 129.382 149.6 119.9 149.6 110C149.6 64.724 140.723 27.5 127.292 10.285C150.77 14.3875 172.051 26.6326 187.397 44.8689C202.742 63.1053 211.17 86.1662 211.2 110ZM110 8.8C124.564 8.8 140.8 50.358 140.8 110C140.8 120.395 140.294 130.229 139.403 139.403C130.229 140.294 120.395 140.8 110 140.8C50.358 140.8 8.80005 124.564 8.80005 110C8.82916 83.169 19.5006 57.4453 38.473 38.4729C57.4454 19.5006 83.1691 8.82911 110 8.8ZM10.285 127.292C27.5 140.723 64.724 149.6 110 149.6C119.9 149.6 129.382 149.171 138.38 148.379C133.331 186.714 121.176 211.2 110 211.2C86.1663 211.17 63.1053 202.742 44.869 187.397C26.6327 172.051 14.3875 150.77 10.285 127.292ZM127.292 209.715C136.785 197.549 144.001 175.373 147.422 147.422C175.373 144.001 197.549 136.785 209.715 127.292C206.116 147.837 196.271 166.773 181.522 181.522C166.773 196.271 147.837 206.115 127.292 209.715Z" fill="#8C8CA2"/>
</svg>
