<svg width="50" height="50" viewBox="0 0 50 50" fill="none" xmlns="http://www.w3.org/2000/svg">
<mask id="path-1-inside-1_110_144" fill="white">
<path d="M21.9001 6.40001C19.5348 6.40001 17.3276 7.06031 15.4459 8.21041C15.2514 7.17009 14.8969 6.16618 14.395 5.23441C16.755 3.92838 19.415 3.26082 22.112 3.2977C24.809 3.33458 27.4498 4.07462 29.7732 5.44469C32.0966 6.81476 34.0223 8.76743 35.3599 11.1097C36.6975 13.4519 37.4007 16.1027 37.4001 18.8H45.1532C46.3859 18.8008 47.5678 19.2911 48.4392 20.1631C49.3106 21.035 49.8001 22.2173 49.8001 23.45V42.05C49.8001 43.2833 49.3102 44.466 48.4381 45.3381C47.5661 46.2101 46.3833 46.7 45.1501 46.7H26.5501C25.3168 46.7 24.1341 46.2101 23.262 45.3381C22.39 44.466 21.9001 43.2833 21.9001 42.05V34.3C19.7437 34.3027 17.6106 33.8539 15.6381 32.9825C15.6784 31.9285 15.7001 30.8218 15.7001 29.65V29.5415C17.5229 30.5955 19.6402 31.2 21.9001 31.2V23.45C21.9001 22.2168 22.39 21.034 23.262 20.162C24.1341 19.2899 25.3168 18.8 26.5501 18.8H34.3001C34.3001 15.5113 32.9937 12.3573 30.6682 10.0319C28.3427 7.70644 25.1888 6.40001 21.9001 6.40001ZM37.0901 21.9C36.4803 24.8778 35.0095 27.6109 32.8602 29.7602C30.711 31.9095 27.9778 33.3803 25.0001 33.99V42.05C25.0001 42.4611 25.1634 42.8554 25.4541 43.146C25.7447 43.4367 26.139 43.6 26.5501 43.6H45.1501C45.5612 43.6 45.9554 43.4367 46.2461 43.146C46.5368 42.8554 46.7001 42.4611 46.7001 42.05V23.45C46.7001 23.0389 46.5368 22.6447 46.2461 22.354C45.9554 22.0633 45.5612 21.9 45.1501 21.9H37.0901ZM33.9095 21.9H26.5501C26.139 21.9 25.7447 22.0633 25.4541 22.354C25.1634 22.6447 25.0001 23.0389 25.0001 23.45V30.8094C27.1447 30.2538 29.1017 29.1347 30.6682 27.5682C32.2348 26.0016 33.3539 24.0446 33.9095 21.9ZM8.20117 0.58751C8.45848 0.812576 8.63417 1.11639 8.70089 1.45167C8.76761 1.78695 8.72162 2.13488 8.57007 2.44131C8.54383 2.53201 8.53027 2.6259 8.52977 2.72031C8.52977 2.91561 8.57937 3.28761 9.04747 3.75261C9.27377 3.97891 9.44737 4.14011 9.63647 4.31681C9.79147 4.45941 9.95577 4.60821 10.1635 4.81281C10.5665 5.19721 10.9912 5.64981 11.3725 6.21711C12.163 7.40441 12.6001 8.88931 12.6001 11.05C12.6001 13.6943 11.6205 15.948 10.0922 17.3306L10.2906 17.56C11.1586 18.6264 11.6639 20.009 11.9801 21.373C12.6001 24.07 12.6001 27.3126 12.6001 29.5725V29.65C12.6001 38.2897 11.4252 43.1908 10.1325 45.9932C9.48147 47.4037 8.79017 48.3027 8.19187 48.8669C7.94863 49.1003 7.68041 49.3061 7.39207 49.4807C7.26005 49.5602 7.12223 49.6296 6.97977 49.6884C6.97977 49.6884 6.62947 49.8 6.40007 49.8C6.17067 49.8 5.82037 49.6884 5.82037 49.6884C5.67637 49.6331 5.53826 49.5635 5.40807 49.4807C5.11974 49.3061 4.85152 49.1003 4.60827 48.8669C4.00997 48.2996 3.31867 47.4037 2.66767 45.9932C1.37497 43.1908 0.200073 38.2897 0.200073 29.65V29.5725C0.200073 27.3095 0.200073 24.07 0.820073 21.373C1.13627 20.009 1.64157 18.6264 2.50957 17.56C2.57157 17.4825 2.63977 17.405 2.70797 17.3306C1.17967 15.948 0.200073 13.6943 0.200073 11.05C0.200073 10.0394 0.469773 8.83351 0.841773 7.72061C1.21377 6.60461 1.73457 5.45141 2.33597 4.52141C3.05207 3.31241 4.05957 2.29871 4.84077 1.61671C5.26906 1.24005 5.71603 0.885167 6.17997 0.55341L6.27297 0.49141L6.30087 0.46971L6.31017 0.46351L6.31637 0.46041C6.60063 0.270928 6.93953 0.180663 7.28037 0.203648C7.62122 0.226633 7.94493 0.361579 8.20117 0.58751ZM6.40007 15.7C7.59977 15.6969 9.50007 14.367 9.50007 11.05C9.50007 9.33571 9.16217 8.49561 8.79017 7.93761C8.56399 7.6117 8.3031 7.3113 8.01207 7.04171L7.62767 6.68211C7.37657 6.44651 7.08207 6.17371 6.85267 5.94741C6.51362 5.61189 6.22257 5.23112 5.98777 4.81591C5.59318 5.23082 5.24591 5.68829 4.95237 6.17991C4.51837 6.84641 4.09677 7.76091 3.78367 8.70331C3.46127 9.66431 3.30007 10.5137 3.30007 11.05C3.30007 14.3732 5.20657 15.7 6.40007 15.7ZM4.91207 19.5192C4.47187 20.0555 4.10607 20.9111 3.83947 22.0705C3.30627 24.3893 3.30007 27.3033 3.30007 29.65C3.30007 38.0603 4.45017 42.4592 5.48247 44.6943C5.82347 45.429 6.14277 45.9188 6.40007 46.2443C6.76634 45.7659 7.07437 45.2456 7.31767 44.6943C8.34997 42.4592 9.50007 38.0603 9.50007 29.65C9.50007 27.3033 9.49387 24.3893 8.95757 22.0705C8.69097 20.9111 8.32517 20.0555 7.88807 19.5192C7.71708 19.2875 7.49224 19.101 7.23299 18.9757C6.97373 18.8503 6.68785 18.7901 6.40007 18.8H6.39387C6.10709 18.7908 5.82236 18.8515 5.56422 18.9768C5.30609 19.102 5.08228 19.2882 4.91207 19.5192Z"/>
</mask>
<path d="M21.9001 6.40001C19.5348 6.40001 17.3276 7.06031 15.4459 8.21041C15.2514 7.17009 14.8969 6.16618 14.395 5.23441C16.755 3.92838 19.415 3.26082 22.112 3.2977C24.809 3.33458 27.4498 4.07462 29.7732 5.44469C32.0966 6.81476 34.0223 8.76743 35.3599 11.1097C36.6975 13.4519 37.4007 16.1027 37.4001 18.8H45.1532C46.3859 18.8008 47.5678 19.2911 48.4392 20.1631C49.3106 21.035 49.8001 22.2173 49.8001 23.45V42.05C49.8001 43.2833 49.3102 44.466 48.4381 45.3381C47.5661 46.2101 46.3833 46.7 45.1501 46.7H26.5501C25.3168 46.7 24.1341 46.2101 23.262 45.3381C22.39 44.466 21.9001 43.2833 21.9001 42.05V34.3C19.7437 34.3027 17.6106 33.8539 15.6381 32.9825C15.6784 31.9285 15.7001 30.8218 15.7001 29.65V29.5415C17.5229 30.5955 19.6402 31.2 21.9001 31.2V23.45C21.9001 22.2168 22.39 21.034 23.262 20.162C24.1341 19.2899 25.3168 18.8 26.5501 18.8H34.3001C34.3001 15.5113 32.9937 12.3573 30.6682 10.0319C28.3427 7.70644 25.1888 6.40001 21.9001 6.40001ZM37.0901 21.9C36.4803 24.8778 35.0095 27.6109 32.8602 29.7602C30.711 31.9095 27.9778 33.3803 25.0001 33.99V42.05C25.0001 42.4611 25.1634 42.8554 25.4541 43.146C25.7447 43.4367 26.139 43.6 26.5501 43.6H45.1501C45.5612 43.6 45.9554 43.4367 46.2461 43.146C46.5368 42.8554 46.7001 42.4611 46.7001 42.05V23.45C46.7001 23.0389 46.5368 22.6447 46.2461 22.354C45.9554 22.0633 45.5612 21.9 45.1501 21.9H37.0901ZM33.9095 21.9H26.5501C26.139 21.9 25.7447 22.0633 25.4541 22.354C25.1634 22.6447 25.0001 23.0389 25.0001 23.45V30.8094C27.1447 30.2538 29.1017 29.1347 30.6682 27.5682C32.2348 26.0016 33.3539 24.0446 33.9095 21.9ZM8.20117 0.58751C8.45848 0.812576 8.63417 1.11639 8.70089 1.45167C8.76761 1.78695 8.72162 2.13488 8.57007 2.44131C8.54383 2.53201 8.53027 2.6259 8.52977 2.72031C8.52977 2.91561 8.57937 3.28761 9.04747 3.75261C9.27377 3.97891 9.44737 4.14011 9.63647 4.31681C9.79147 4.45941 9.95577 4.60821 10.1635 4.81281C10.5665 5.19721 10.9912 5.64981 11.3725 6.21711C12.163 7.40441 12.6001 8.88931 12.6001 11.05C12.6001 13.6943 11.6205 15.948 10.0922 17.3306L10.2906 17.56C11.1586 18.6264 11.6639 20.009 11.9801 21.373C12.6001 24.07 12.6001 27.3126 12.6001 29.5725V29.65C12.6001 38.2897 11.4252 43.1908 10.1325 45.9932C9.48147 47.4037 8.79017 48.3027 8.19187 48.8669C7.94863 49.1003 7.68041 49.3061 7.39207 49.4807C7.26005 49.5602 7.12223 49.6296 6.97977 49.6884C6.97977 49.6884 6.62947 49.8 6.40007 49.8C6.17067 49.8 5.82037 49.6884 5.82037 49.6884C5.67637 49.6331 5.53826 49.5635 5.40807 49.4807C5.11974 49.3061 4.85152 49.1003 4.60827 48.8669C4.00997 48.2996 3.31867 47.4037 2.66767 45.9932C1.37497 43.1908 0.200073 38.2897 0.200073 29.65V29.5725C0.200073 27.3095 0.200073 24.07 0.820073 21.373C1.13627 20.009 1.64157 18.6264 2.50957 17.56C2.57157 17.4825 2.63977 17.405 2.70797 17.3306C1.17967 15.948 0.200073 13.6943 0.200073 11.05C0.200073 10.0394 0.469773 8.83351 0.841773 7.72061C1.21377 6.60461 1.73457 5.45141 2.33597 4.52141C3.05207 3.31241 4.05957 2.29871 4.84077 1.61671C5.26906 1.24005 5.71603 0.885167 6.17997 0.55341L6.27297 0.49141L6.30087 0.46971L6.31017 0.46351L6.31637 0.46041C6.60063 0.270928 6.93953 0.180663 7.28037 0.203648C7.62122 0.226633 7.94493 0.361579 8.20117 0.58751ZM6.40007 15.7C7.59977 15.6969 9.50007 14.367 9.50007 11.05C9.50007 9.33571 9.16217 8.49561 8.79017 7.93761C8.56399 7.6117 8.3031 7.3113 8.01207 7.04171L7.62767 6.68211C7.37657 6.44651 7.08207 6.17371 6.85267 5.94741C6.51362 5.61189 6.22257 5.23112 5.98777 4.81591C5.59318 5.23082 5.24591 5.68829 4.95237 6.17991C4.51837 6.84641 4.09677 7.76091 3.78367 8.70331C3.46127 9.66431 3.30007 10.5137 3.30007 11.05C3.30007 14.3732 5.20657 15.7 6.40007 15.7ZM4.91207 19.5192C4.47187 20.0555 4.10607 20.9111 3.83947 22.0705C3.30627 24.3893 3.30007 27.3033 3.30007 29.65C3.30007 38.0603 4.45017 42.4592 5.48247 44.6943C5.82347 45.429 6.14277 45.9188 6.40007 46.2443C6.76634 45.7659 7.07437 45.2456 7.31767 44.6943C8.34997 42.4592 9.50007 38.0603 9.50007 29.65C9.50007 27.3033 9.49387 24.3893 8.95757 22.0705C8.69097 20.9111 8.32517 20.0555 7.88807 19.5192C7.71708 19.2875 7.49224 19.101 7.23299 18.9757C6.97373 18.8503 6.68785 18.7901 6.40007 18.8H6.39387C6.10709 18.7908 5.82236 18.8515 5.56422 18.9768C5.30609 19.102 5.08228 19.2882 4.91207 19.5192Z" fill="#8C8CA2" stroke="#23282E" mask="url(#path-1-inside-1_110_144)"/>
</svg>
