<svg width="72" height="62" viewBox="0 0 72 62" fill="none" xmlns="http://www.w3.org/2000/svg">
<g clip-path="url(#clip0_110_136)">
<path d="M60.8612 33.3439C58.8699 33.0183 56.8874 32.6241 54.8859 32.3789C48.9996 31.6591 43.0827 31.4197 37.1556 31.3745C36.7263 31.3745 36.1614 31.1964 35.9103 30.8927C35.6592 30.589 35.5643 29.9423 35.7351 29.6226C35.9249 29.2664 36.4811 28.9277 36.903 28.9029C38.268 28.8226 39.6403 28.8649 41.0082 28.9029C46.4813 29.062 51.9574 29.2065 57.3677 30.1686C59.1196 30.4796 60.8349 31.0095 62.524 31.5672C63.8803 32.0154 64.5577 32.9789 64.4511 34.5293C64.3328 36.2315 64.473 37.9513 64.4029 39.6593C64.3693 40.5061 64.5941 40.871 65.4628 41.0959C66.7547 41.4451 68.0128 41.9092 69.222 42.4828C70.733 43.1791 71.4965 44.3339 71.4235 46.1237C71.3111 48.9106 71.3593 51.7049 71.4118 54.4933C71.4323 55.5298 71.076 56.3532 70.2439 56.8291C69.0015 57.5473 67.7183 58.2495 66.3679 58.7167C62.7722 59.962 59.0159 60.4978 55.2509 60.9445C46.8156 61.9431 38.3454 62.1548 29.8634 61.8803C22.4413 61.6394 15.0353 61.1504 7.79427 59.3503C6.14752 58.9415 4.56208 58.2642 2.9854 57.6233C2.37076 57.3835 1.8247 56.9959 1.39558 56.4948C0.99995 56.0013 0.655417 55.3079 0.639358 54.6933C0.561984 51.7209 0.639362 48.7442 0.588266 45.7704C0.563448 44.4332 1.07295 43.3966 2.20582 42.839C3.65695 42.1251 5.19275 41.5732 6.72417 41.0418C7.32565 40.8331 7.61616 40.6418 7.6001 39.9338C7.54171 38.014 7.62785 36.0899 7.56216 34.1701C7.52274 33.011 7.9826 32.1701 8.99138 31.7745C10.4513 31.2022 11.9462 30.6372 13.4776 30.3423C19.4719 29.1919 25.5567 29.0518 31.6357 28.8912C32.4635 28.8693 32.9861 29.373 33.0124 30.0985C33.0387 30.8606 32.5204 31.3599 31.6547 31.4124C27.2152 31.6737 22.7698 31.8621 18.3391 32.2285C15.9156 32.4285 13.5214 32.9307 11.1097 33.2971V33.6592C12.3725 33.9088 13.628 34.2139 14.9054 34.4008C22.2968 35.4855 29.7393 35.7001 37.195 35.6768C43.1484 35.6578 49.0916 35.4169 55.0056 34.6957C56.9808 34.4548 58.9356 34.0548 60.9006 33.7263L60.8612 33.3439ZM68.8643 45.4084C68.7775 45.2859 68.6798 45.1716 68.5723 45.0668C67.0365 44.0215 65.2555 43.6331 63.4978 43.1923C63.3518 43.1558 63.162 43.2915 62.997 43.3572C61.9007 43.7952 60.8364 44.3456 59.7064 44.6595C54.0903 46.2259 48.3105 46.6318 42.5236 46.8858C34.9102 47.2201 27.3071 47.0318 19.7362 46.1033C16.5478 45.712 13.2893 45.3733 10.3929 43.966C8.69794 43.1382 7.31543 43.42 5.77817 43.931C5.3523 44.0664 4.93582 44.2298 4.53143 44.42C4.07156 44.6463 3.63797 44.9266 3.01897 45.2828C3.52848 45.5967 3.84965 45.8843 4.22484 46.0128C5.66575 46.5004 7.10228 47.0347 8.58115 47.3734C13.4382 48.5033 18.3858 48.9982 23.3508 49.3369C30.7864 49.8348 38.245 49.8899 45.6871 49.5019C47.8434 49.3939 49.9953 49.2099 52.1486 49.0727C53.0669 49.0128 53.6216 49.4041 53.7019 50.1457C53.7881 50.937 53.3224 51.4436 52.388 51.5808C52.3102 51.5939 52.2318 51.6027 52.153 51.6071C47.9193 51.8246 43.6856 52.2348 39.452 52.2115C33.1102 52.1764 26.767 51.9385 20.4355 51.5925C15.9186 51.3443 11.4206 50.7574 7.03075 49.5837C5.71685 49.2347 4.44967 48.753 3.15913 48.3311C3.14066 48.381 3.12792 48.433 3.12117 48.4858C3.12117 50.2494 3.12117 52.0134 3.12117 53.7779C3.12117 55.2582 3.12117 55.2582 4.51682 55.7926C4.61157 55.8368 4.70911 55.8748 4.8088 55.9064C7.54463 56.54 10.26 57.305 13.0251 57.778C19.4705 58.8773 25.983 59.3226 32.5175 59.4394C42.5425 59.616 52.518 59.1299 62.3751 57.1561C64.273 56.7765 66.1168 56.1196 67.9811 55.575C68.6351 55.3838 68.9023 54.9765 68.8731 54.2349C68.8074 52.499 68.8541 50.7603 68.8512 49.0231C68.8512 48.8026 68.8234 48.5851 68.8059 48.3135C68.6351 48.3676 68.5373 48.3909 68.4424 48.4289C65.5259 49.5711 62.4841 50.363 59.3809 50.7881C58.8597 50.8596 58.3371 50.934 57.8144 50.9749C57.0144 51.0479 56.4217 50.6012 56.3414 49.8873C56.2582 49.1413 56.6816 48.6449 57.4962 48.4668C60.5488 47.8011 63.6058 47.1529 66.6424 46.423C67.3884 46.2434 68.0614 45.7821 68.8643 45.4084ZM61.8934 36.0257C53.2961 37.9615 44.6418 38.1177 35.992 38.2155C27.3159 38.3206 18.669 37.9133 10.0994 35.9439V40.0185C10.0994 41.3586 10.0878 41.4944 11.4017 41.8696C13.3404 42.4229 15.3083 43.0156 17.3011 43.2142C22.0092 43.6857 26.7349 44.0901 31.462 44.2361C39.8855 44.512 48.3062 44.3237 56.6451 42.909C58.2086 42.6433 59.7225 42.0594 61.2379 41.5572C61.5109 41.4667 61.8539 41.0637 61.8642 40.7922C61.9182 39.2272 61.8875 37.652 61.8875 36.0257H61.8934Z" fill="#DB4FD7"/>
<path d="M35.3351 0C44.9192 0.0934329 52.8859 3.50374 58.5765 11.447C61.4087 15.4004 62.8759 19.8997 63.4773 24.6984C63.5722 25.4546 63.635 26.2152 63.6773 26.9758C63.7255 27.8357 63.3109 28.3686 62.5897 28.4357C61.8189 28.5116 61.3094 28.062 61.178 27.1787C60.9006 25.3101 60.7605 23.4079 60.3298 21.5742C57.8071 10.8163 49.1588 3.40884 38.1205 2.64386C29.2065 2.02779 21.7158 4.97968 16.0879 12.0718C13.136 15.7902 11.6352 20.1421 11.0308 24.8181C10.9257 25.6254 10.8965 26.443 10.7885 27.2503C10.6776 28.0883 10.1564 28.5218 9.41622 28.4605C8.67606 28.3992 8.24831 27.8664 8.2994 27.0196C8.83372 18.6983 11.7666 11.5127 18.3522 6.11985C22.8005 2.47013 27.9699 0.581037 33.681 0.115332C34.2329 0.0715358 34.7847 0.039417 35.3351 0Z" fill="#DB4FD7"/>
</g>
<defs>
<clipPath id="clip0_110_136">
<rect width="70.844" height="62" fill="white" transform="translate(0.578003)"/>
</clipPath>
</defs>
</svg>
