<svg width="62" height="62" viewBox="0 0 62 62" fill="none" xmlns="http://www.w3.org/2000/svg">
<g clip-path="url(#clip0_110_167)">
<path d="M-3.99393e-05 6.14403C0.445218 4.93003 1.19378 4.00254 2.54776 3.87871C3.60448 3.78159 4.67577 3.85929 5.77496 3.85929V5.77983C4.91356 5.77983 4.03519 5.77983 3.15802 5.77983C2.28085 5.77983 1.93629 6.11611 1.93629 6.97926C1.93629 16.1247 1.93629 25.2701 1.93629 34.4156C1.93629 34.537 1.946 34.6584 1.95207 34.8126H12.1845C12.028 34.2056 11.812 33.5986 11.7235 32.9746C11.3461 30.3268 12.2561 28.1744 14.3489 26.5404C14.6886 26.2757 14.7614 26.073 14.6825 25.6517C13.8333 21.0895 16.9671 16.9717 21.6611 16.4751C21.8058 16.4734 21.9468 16.4292 22.0667 16.3481C22.1866 16.267 22.2801 16.1524 22.3356 16.0187C24.1773 12.5381 27.0855 10.6516 31.0127 10.654C34.9169 10.654 37.8068 12.5394 39.6412 15.9956C39.8147 16.3234 40.0052 16.4399 40.3692 16.4812C45.1141 16.9984 48.1824 21.1478 47.3028 25.8096C47.2901 25.916 47.3009 26.024 47.3347 26.1258C47.3685 26.2276 47.4243 26.3206 47.4981 26.3983C50.217 28.5702 51.0068 31.3114 49.8336 34.5843C49.8103 34.6672 49.7929 34.7515 49.7815 34.8368H60.0612V34.2031C60.0612 25.1775 60.0612 16.1534 60.0612 7.13101C60.0612 6.09183 59.7615 5.78833 58.74 5.78711C57.9162 5.78711 57.0912 5.78711 56.2274 5.78711V3.87993C57.3424 3.87993 58.4549 3.78766 59.5456 3.90299C60.9772 4.05474 61.9854 5.29787 61.9939 6.76559C62.0097 9.32956 61.9939 11.8935 61.9939 14.4587V45.1036C61.9939 47.2961 60.8644 48.4287 58.6818 48.4299H38.7483V50.1295C38.7483 51.1396 38.7483 52.1496 38.7483 53.1585C38.7604 54.9345 39.9858 56.1716 41.7523 56.1825C43.304 56.1935 44.8569 56.1825 46.496 56.1825V61.9988H15.4978V56.2469C15.5433 56.2269 15.5904 56.2106 15.6386 56.1983C17.2158 56.1922 18.7845 56.1983 20.3569 56.1789C21.9802 56.1558 23.2116 54.9127 23.2444 53.2871C23.2589 52.5587 23.2444 51.8303 23.2444 51.102V48.4299H22.4485C16.0588 48.4299 9.66541 48.4299 3.26843 48.4299C2.94663 48.4387 2.62476 48.4155 2.30754 48.3607C1.07125 48.1094 0.410044 47.2451 -0.00488281 46.1306L-3.99393e-05 6.14403ZM60.0551 36.8387H1.93751V44.9871C1.93751 46.2557 2.18015 46.4912 3.46133 46.4912H58.5422C58.683 46.4912 58.8249 46.4912 58.9657 46.4912C59.6839 46.4681 60.043 46.1197 60.0576 45.4083C60.0697 44.9045 60.0576 44.3995 60.0576 43.8945L60.0551 36.8387ZM45.3616 25.3664C46.2267 21.8179 43.1475 18.5195 40.5597 18.5681C40.6009 19.1386 40.6434 19.708 40.681 20.2871H38.8065C38.4874 15.1482 34.5869 12.6996 31.4058 12.5685C29.5241 12.4908 27.8122 12.9934 26.3102 14.1467C24.3023 15.6921 23.3232 17.7802 23.2177 20.2689H21.291C21.3396 19.6473 21.3832 19.0767 21.4281 18.4989C18.2567 18.7514 15.5015 22.8098 16.6783 25.3531L18.3999 25.1382V27.0806C18.1973 27.0976 18.0578 27.1061 17.9146 27.1231C14.338 27.5613 12.4102 31.4279 14.2591 34.4338C14.331 34.5755 14.4439 34.6923 14.583 34.7689C14.7221 34.8456 14.8811 34.8786 15.0392 34.8635C25.689 34.8538 36.3392 34.8538 46.9898 34.8635C47.1369 34.874 47.2837 34.8408 47.4121 34.7683C47.5405 34.6958 47.6446 34.587 47.7117 34.4556C49.3677 31.814 48.0514 28.2776 45.0426 27.3368C44.5888 27.1947 44.1084 27.1365 43.6304 27.0369V25.1334L45.3616 25.3664ZM24.2234 56.1497H37.7862C36.9369 55.0159 36.7695 53.7849 36.8071 52.4895C36.8399 51.38 36.8144 50.2704 36.8144 49.1608V48.4324H33.9026C33.9026 49.4181 33.9026 50.3056 33.9026 51.193C33.8941 53.0055 32.6724 54.2875 30.9678 54.2741C29.2984 54.262 28.0997 52.9812 28.0912 51.1966C28.0912 50.2946 28.0912 49.3926 28.0912 48.4688H25.1795C25.1795 49.6913 25.1564 50.8786 25.1795 52.0634C25.2268 53.4875 25.1698 54.8835 24.2234 56.1497ZM44.5342 58.1723H17.4657V60.0345H44.5342V58.1723ZM30.0312 48.4603C30.0312 49.4703 30.0178 50.416 30.0312 51.3605C30.0433 51.9238 30.3952 52.2929 30.9071 52.3317C31.4191 52.3706 31.9117 52.0489 31.9348 51.5293C31.9797 50.5132 31.9481 49.4922 31.9481 48.4591L30.0312 48.4603Z" fill="#8C8CA2"/>
<path d="M14.9216 6.38926L16.1058 5.19711L22.8198 11.919L21.5629 13.0395L14.9216 6.38926Z" fill="#8C8CA2"/>
<path d="M42.2353 15.0414L41.1506 13.8833L44.9493 10.0762L46.0412 11.2343C44.7976 12.4762 43.5261 13.7497 42.2353 15.0414Z" fill="#8C8CA2"/>
<path d="M29.0935 3.86902H30.9558V8.64974H29.0935V3.86902Z" fill="#8C8CA2"/>
<path d="M11.2346 25.358L10.076 26.907L6.20093 24.0007L7.36806 22.4553L11.2346 25.358Z" fill="#8C8CA2"/>
<path d="M37.7279 6.09184C37.3895 7.10188 37.0789 8.02695 36.7574 8.99572L34.9375 8.37901C35.2542 7.42238 35.5599 6.49731 35.8935 5.48605L37.7279 6.09184Z" fill="#8C8CA2"/>
<path d="M51.7155 22.6544L52.8741 23.8295L50.9681 25.7379L49.8374 24.5312L51.7155 22.6544Z" fill="#8C8CA2"/>
<path d="M54.6756 29.9092L52.7551 30.8804C52.4676 30.3171 52.1909 29.7733 51.8767 29.1553L53.8094 28.1841L54.6756 29.9092Z" fill="#8C8CA2"/>
<path d="M6.34888 30.8768C6.66432 30.2528 6.93365 29.7198 7.21997 29.1505L9.14053 30.1095L8.29127 31.8419L6.34888 30.8768Z" fill="#8C8CA2"/>
<path d="M30.9678 1.87805H29.1018V0H30.9678V1.87805Z" fill="#8C8CA2"/>
</g>
<defs>
<clipPath id="clip0_110_167">
<rect width="62" height="62" fill="white"/>
</clipPath>
</defs>
</svg>
